<?xml version="1.0" encoding="UTF-8" standalone="no"?>
<!-- Created with Inkscape (http://www.inkscape.org/) -->

<svg
   width="24"
   height="24"
   viewBox="0 0 6.3499999 6.35"
   version="1.1"
   id="svg1"
   xml:space="preserve"
   inkscape:export-filename="IfcQuantitySet.png"
   inkscape:export-xdpi="96"
   inkscape:export-ydpi="96"
   sodipodi:docname="IfcBuilding.svg"
   inkscape:version="1.4 (86a8ad7, 2024-10-11)"
   xmlns:inkscape="http://www.inkscape.org/namespaces/inkscape"
   xmlns:sodipodi="http://sodipodi.sourceforge.net/DTD/sodipodi-0.dtd"
   xmlns="http://www.w3.org/2000/svg"
   xmlns:svg="http://www.w3.org/2000/svg"><sodipodi:namedview
     id="namedview1"
     pagecolor="#ffffff"
     bordercolor="#000000"
     borderopacity="0.25"
     inkscape:showpageshadow="2"
     inkscape:pageopacity="0.0"
     inkscape:pagecheckerboard="0"
     inkscape:deskcolor="#d1d1d1"
     inkscape:document-units="mm"
     showgrid="true"
     inkscape:zoom="22.627418"
     inkscape:cx="1.281631"
     inkscape:cy="13.368737"
     inkscape:window-width="2560"
     inkscape:window-height="1377"
     inkscape:window-x="-8"
     inkscape:window-y="-8"
     inkscape:window-maximized="1"
     inkscape:current-layer="svg1"
     showguides="true"><inkscape:grid
       id="grid1"
       units="px"
       originx="0"
       originy="0"
       spacingx="0.26458332"
       spacingy="0.26458332"
       empcolor="#0099e5"
       empopacity="0.30196078"
       color="#0099e5"
       opacity="0.14902"
       empspacing="5"
       enabled="true"
       visible="true" /></sodipodi:namedview><defs
     id="defs1"><inkscape:path-effect
       effect="fillet_chamfer"
       id="path-effect36"
       is_visible="true"
       lpeversion="1"
       nodesatellites_param="F,0,0,1,0,25.64425,0,1 @ F,0,0,1,0,25.524718,0,1 @ F,0,0,1,0,22.845291,0,1 @ F,0,0,1,0,25.524718,0,1"
       radius="0"
       unit="px"
       method="auto"
       mode="F"
       chamfer_steps="1"
       flexible="false"
       use_knot_distance="true"
       apply_no_radius="true"
       apply_with_radius="true"
       only_selected="false"
       hide_knots="false" /><style
       id="style1">.cls-1{fill:#1c1c1b;}.cls-1,.cls-2,.cls-3,.cls-4,.cls-5{stroke-width:0px;}.cls-2{fill:#9f358b;}.cls-3{fill:#009eb0;}.cls-4{fill:#f00023;}.cls-5{fill:#004f9f;}</style><marker
       id="DistanceX"
       orient="auto"
       refX="0.0"
       refY="0.0"
       style="overflow:visible"><path
         d="M 3,-3 L -3,3 M 0,-5 L  0,5"
         style="stroke:#000000; stroke-width:0.5"
         id="path1-0" /></marker><pattern
       id="Hatch"
       patternUnits="userSpaceOnUse"
       width="8"
       height="8"
       x="0"
       y="0"><path
         d="M8 4 l-4,4"
         stroke="#000000"
         stroke-width="0.25"
         linecap="square"
         id="path2-9" /><path
         d="M6 2 l-4,4"
         stroke="#000000"
         stroke-width="0.25"
         linecap="square"
         id="path3-4" /><path
         d="M4 0 l-4,4"
         stroke="#000000"
         stroke-width="0.25"
         linecap="square"
         id="path4-88" /></pattern><symbol
       id="*Model_Space" /><symbol
       id="*Paper_Space" /><symbol
       id="*Paper_Space0" /></defs><g
     inkscape:groupmode="layer"
     id="layer4"
     inkscape:label="IfcBuilding"
     style="display:inline"><path
       id="path16"
       style="fill:#000000;fill-opacity:0.0986159;stroke-width:0.00661458"
       d="M 1.851825,0.26380868 A 0.52843824,0.52843824 0 0 0 1.3221416,0.79297535 V 1.3226588 H 0.79297485 a 0.52843824,0.52843824 0 0 0 -0.5291667,0.5291667 v 3.7052002 a 0.52843824,0.52843824 0 0 0 0.5291667,0.5291666 H 2.9101583 A 0.52843824,0.52843824 0 0 0 3.1737081,5.8205755 0.52843824,0.52843824 0 0 0 3.439325,6.0861923 H 5.5570251 A 0.52843824,0.52843824 0 0 0 6.0861919,5.5570257 V 2.9101588 A 0.52843824,0.52843824 0 0 0 5.5570251,2.3809921 H 5.0273418 V 0.79297535 A 0.52843824,0.52843824 0 0 0 4.4981751,0.26380868 Z" /><path
       d="m 120,-120 v -560 h 160 v -160 h 400 v 320 h 160 v 400 H 520 v -160 h -80 v 160 z m 80,-80 h 80 v -80 h -80 z m 0,-160 h 80 v -80 h -80 z m 0,-160 h 80 v -80 h -80 z m 160,160 h 80 v -80 h -80 z m 0,-160 h 80 v -80 h -80 z m 0,-160 h 80 v -80 h -80 z m 160,320 h 80 v -80 h -80 z m 0,-160 h 80 v -80 h -80 z m 0,-160 h 80 v -80 h -80 z m 160,480 h 80 v -80 h -80 z m 0,-160 h 80 v -80 h -80 z"
       id="path15"
       style="fill:#000000;fill-opacity:1"
       transform="matrix(0.00661458,0,0,0.00661458,1.8538837e-6,6.3499976)" /><rect
       style="fill:#ffffff;fill-opacity:1;stroke-width:0.264583;stroke-linecap:round;stroke-linejoin:round;paint-order:markers fill stroke"
       id="rect16"
       width="0.52916759"
       height="0.5291661"
       x="1.3229166"
       y="2.3812499" /><rect
       style="fill:#ffffff;fill-opacity:1;stroke-width:0.264583;stroke-linecap:round;stroke-linejoin:round;paint-order:markers fill stroke"
       id="rect17"
       width="0.52916759"
       height="0.5291661"
       x="2.3812494"
       y="1.3229166" /><rect
       style="fill:#ffffff;fill-opacity:1;stroke-width:0.264583;stroke-linecap:round;stroke-linejoin:round;paint-order:markers fill stroke"
       id="rect18"
       width="0.52916759"
       height="0.5291661"
       x="3.4395826"
       y="1.3229166" /><rect
       style="fill:#ffffff;fill-opacity:1;stroke-width:0.264583;stroke-linecap:round;stroke-linejoin:round;paint-order:markers fill stroke"
       id="rect19"
       width="0.52916759"
       height="0.5291661"
       x="3.4395821"
       y="2.3812501" /><rect
       style="fill:#ffffff;fill-opacity:1;stroke-width:0.264583;stroke-linecap:round;stroke-linejoin:round;paint-order:markers fill stroke"
       id="rect20"
       width="0.52916759"
       height="0.5291661"
       x="2.3812494"
       y="2.3812499" /><rect
       style="fill:#ffffff;fill-opacity:1;stroke-width:0.264583;stroke-linecap:round;stroke-linejoin:round;paint-order:markers fill stroke"
       id="rect21"
       width="0.52916759"
       height="0.5291661"
       x="1.3229178"
       y="3.4395826" /><rect
       style="fill:#ffffff;fill-opacity:1;stroke-width:0.264583;stroke-linecap:round;stroke-linejoin:round;paint-order:markers fill stroke"
       id="rect22"
       width="0.52916759"
       height="0.5291661"
       x="2.3812494"
       y="3.4395831" /><rect
       style="fill:#ffffff;fill-opacity:1;stroke-width:0.264583;stroke-linecap:round;stroke-linejoin:round;paint-order:markers fill stroke"
       id="rect23"
       width="0.52916759"
       height="0.5291661"
       x="3.4395828"
       y="3.4395823" /><rect
       style="fill:#ffffff;fill-opacity:1;stroke-width:0.264583;stroke-linecap:round;stroke-linejoin:round;paint-order:markers fill stroke"
       id="rect24"
       width="0.52916759"
       height="0.5291661"
       x="4.4979162"
       y="3.4395831" /><rect
       style="fill:#ffffff;fill-opacity:1;stroke-width:0.264583;stroke-linecap:round;stroke-linejoin:round;paint-order:markers fill stroke"
       id="rect25"
       width="0.52916759"
       height="0.5291661"
       x="4.4979162"
       y="4.4979153" /><rect
       style="fill:#ffffff;fill-opacity:1;stroke-width:0.264583;stroke-linecap:round;stroke-linejoin:round;paint-order:markers fill stroke"
       id="rect26"
       width="0.52916759"
       height="0.5291661"
       x="1.3229172"
       y="4.4979153" /></g></svg>
