<?xml version="1.0" encoding="UTF-8" standalone="no"?>
<!-- Created with Inkscape (http://www.inkscape.org/) -->

<svg
   width="24"
   height="24"
   viewBox="0 0 6.3499999 6.35"
   version="1.1"
   id="svg1"
   xml:space="preserve"
   inkscape:export-filename="IfcQuantitySet.png"
   inkscape:export-xdpi="96"
   inkscape:export-ydpi="96"
   sodipodi:docname="IfcBridge.svg"
   inkscape:version="1.4 (86a8ad7, 2024-10-11)"
   xmlns:inkscape="http://www.inkscape.org/namespaces/inkscape"
   xmlns:sodipodi="http://sodipodi.sourceforge.net/DTD/sodipodi-0.dtd"
   xmlns="http://www.w3.org/2000/svg"
   xmlns:svg="http://www.w3.org/2000/svg"><sodipodi:namedview
     id="namedview1"
     pagecolor="#ffffff"
     bordercolor="#000000"
     borderopacity="0.25"
     inkscape:showpageshadow="2"
     inkscape:pageopacity="0.0"
     inkscape:pagecheckerboard="0"
     inkscape:deskcolor="#d1d1d1"
     inkscape:document-units="mm"
     showgrid="true"
     inkscape:zoom="18.601681"
     inkscape:cx="10.536682"
     inkscape:cy="14.111628"
     inkscape:window-width="1920"
     inkscape:window-height="1137"
     inkscape:window-x="2552"
     inkscape:window-y="-8"
     inkscape:window-maximized="1"
     inkscape:current-layer="layer1"
     showguides="true"><inkscape:grid
       id="grid1"
       units="px"
       originx="0"
       originy="0"
       spacingx="0.26458332"
       spacingy="0.26458332"
       empcolor="#0099e5"
       empopacity="0.30196078"
       color="#0099e5"
       opacity="0.14902"
       empspacing="5"
       enabled="true"
       visible="true" /></sodipodi:namedview><defs
     id="defs1"><inkscape:path-effect
       effect="fillet_chamfer"
       id="path-effect15"
       is_visible="true"
       lpeversion="1"
       nodesatellites_param="F,0,0,1,0,0,0,1 @ F,0,0,1,0,0,0,1 @ F,0,0,1,0,0,0,1 @ F,0,0,1,0,0,0,1"
       radius="0"
       unit="px"
       method="auto"
       mode="F"
       chamfer_steps="1"
       flexible="false"
       use_knot_distance="true"
       apply_no_radius="true"
       apply_with_radius="true"
       only_selected="false"
       hide_knots="false" /><inkscape:path-effect
       effect="fillet_chamfer"
       id="path-effect14"
       is_visible="true"
       lpeversion="1"
       nodesatellites_param="F,0,0,1,0,0,0,1 @ F,0,0,1,0,0,0,1 @ F,0,0,1,0,0,0,1 @ F,0,0,1,0,0,0,1"
       radius="0"
       unit="px"
       method="auto"
       mode="F"
       chamfer_steps="1"
       flexible="false"
       use_knot_distance="true"
       apply_no_radius="true"
       apply_with_radius="true"
       only_selected="false"
       hide_knots="false" /><inkscape:path-effect
       effect="fillet_chamfer"
       id="path-effect13"
       is_visible="true"
       lpeversion="1"
       nodesatellites_param="F,0,0,1,0,0,0,1 @ F,0,0,1,0,0.18314127,0,1 @ F,0,0,1,0,0.17754677,0,1 @ F,0,0,1,0,0,0,1"
       radius="0"
       unit="px"
       method="auto"
       mode="F"
       chamfer_steps="1"
       flexible="false"
       use_knot_distance="true"
       apply_no_radius="true"
       apply_with_radius="true"
       only_selected="false"
       hide_knots="false" /><inkscape:path-effect
       effect="fillet_chamfer"
       id="path-effect12"
       is_visible="true"
       lpeversion="1"
       nodesatellites_param="F,0,1,1,0,0.1756936,0,1 @ F,0,0,1,0,0.1756936,0,1 @ F,0,0,1,0,0.1674213,0,1 @ F,0,0,1,0,0.1756936,0,1"
       radius="0"
       unit="px"
       method="auto"
       mode="F"
       chamfer_steps="1"
       flexible="false"
       use_knot_distance="true"
       apply_no_radius="true"
       apply_with_radius="true"
       only_selected="false"
       hide_knots="false" /><inkscape:path-effect
       effect="fillet_chamfer"
       id="path-effect36"
       is_visible="true"
       lpeversion="1"
       nodesatellites_param="F,0,0,1,0,25.64425,0,1 @ F,0,0,1,0,25.524718,0,1 @ F,0,0,1,0,22.845291,0,1 @ F,0,0,1,0,25.524718,0,1"
       radius="0"
       unit="px"
       method="auto"
       mode="F"
       chamfer_steps="1"
       flexible="false"
       use_knot_distance="true"
       apply_no_radius="true"
       apply_with_radius="true"
       only_selected="false"
       hide_knots="false" /><style
       id="style1">.cls-1{fill:#1c1c1b;}.cls-1,.cls-2,.cls-3,.cls-4,.cls-5{stroke-width:0px;}.cls-2{fill:#9f358b;}.cls-3{fill:#009eb0;}.cls-4{fill:#f00023;}.cls-5{fill:#004f9f;}</style><marker
       id="DistanceX"
       orient="auto"
       refX="0.0"
       refY="0.0"
       style="overflow:visible"><path
         d="M 3,-3 L -3,3 M 0,-5 L  0,5"
         style="stroke:#000000; stroke-width:0.5"
         id="path1-0" /></marker><pattern
       id="Hatch"
       patternUnits="userSpaceOnUse"
       width="8"
       height="8"
       x="0"
       y="0"><path
         d="M8 4 l-4,4"
         stroke="#000000"
         stroke-width="0.25"
         linecap="square"
         id="path2-9" /><path
         d="M6 2 l-4,4"
         stroke="#000000"
         stroke-width="0.25"
         linecap="square"
         id="path3-4" /><path
         d="M4 0 l-4,4"
         stroke="#000000"
         stroke-width="0.25"
         linecap="square"
         id="path4-88" /></pattern><symbol
       id="*Model_Space" /><symbol
       id="*Paper_Space" /><symbol
       id="*Paper_Space0" /></defs><g
     inkscape:groupmode="layer"
     id="layer1"
     inkscape:label="IfcBridge"
     transform="translate(0,-0.66145823)"><path
       id="path28"
       style="stroke-width:0.132292;stroke-linecap:round;stroke-linejoin:round;paint-order:markers stroke fill;fill:#000000;fill-opacity:0.1"
       d="M 0.79296875,1.5878906 C 0.50053718,1.5876274 0.26340863,1.8247559 0.26367188,2.1171875 v 0.2636719 c 0.05296,0.1169903 0.14668159,0.2107118 0.26367187,0.2636719 -0.11733218,0.053439 -0.21110008,0.1479016 -0.26367187,0.265625 v 2.1171874 0.5292969 c -2.6325e-4,0.2924316 0.2368653,0.5295601 0.52929687,0.5292969 H 1.8515625 C 2.1439941,6.0862008 2.3811227,5.8490722 2.3808594,5.5566406 V 4.7617187 c 7.66e-5,-0.1559143 -0.014877,-0.0014 0.015625,-0.1542968 0.030502,-0.1529017 -0.014832,-0.00443 0.044922,-0.1484375 0.059754,-0.1440094 -0.014444,-0.00909 0.072266,-0.1386719 0.086709,-0.1295794 -0.01072,-0.00897 0.099609,-0.1191406 0.1103294,-0.1101667 -0.00861,-0.013092 0.1210937,-0.099609 0.1297073,-0.086518 -0.00738,-0.012724 0.1367188,-0.072266 0.1440974,-0.059542 -0.00451,-0.016599 0.1484375,-0.046875 0.1529464,-0.030276 3.357e-4,-0.013825 0.15625,-0.013672 0.1559631,7.67e-5 0.00134,-0.014858 0.1542968,0.015625 0.1529552,0.030483 0.00436,-0.014798 0.1484375,0.044922 0.1440766,0.05972 0.009,-0.014399 0.1386719,0.072266 0.129668,0.086665 0.00886,-0.010673 0.1191406,0.099609 0.1102827,0.1102826 0.012945,-0.010527 0.099609,0.1191406 0.086664,0.129668 0.012546,-0.0054 0.072266,0.1386719 0.05972,0.1440765 0.014439,-0.00452 0.044922,0.1484375 0.030483,0.1529552 0.015548,-0.00167 0.015625,0.1542968 v 0.7949219 c -2.633e-4,0.2924315 0.2368652,0.52956 0.5292967,0.5292969 H 5.5566406 C 5.8490722,6.0862008 6.0862008,5.8490722 6.0859375,5.5566406 V 5.0273437 2.9101563 C 6.0328874,2.7920907 5.9383781,2.6975814 5.8203125,2.6445313 5.9380359,2.5919595 6.0324984,2.4981916 6.0859375,2.3808594 V 2.1171875 C 6.0862008,1.8247559 5.8490722,1.5876273 5.5566406,1.5878906 Z"
       sodipodi:nodetypes="ccccccccccccssccsscssccscscccccccccccc" /><path
       id="rect16"
       style="fill:#000000;fill-opacity:1;stroke:none;stroke-width:0.132292;stroke-linecap:round;stroke-linejoin:round;stroke-dasharray:none;stroke-opacity:1;paint-order:markers stroke fill"
       d="M 0.79375 2.1166666 L 0.79375 2.3812499 L 1.190625 2.3812499 L 1.190625 2.9104166 L 0.79375 2.9104166 L 0.79375 5.0270832 L 0.79375 5.5562499 L 1.8520833 5.5562499 L 1.8520833 4.7624999 A 1.3229165 1.3229165 0 0 1 3.175 3.4395832 A 1.3229165 1.3229165 0 0 1 4.4979167 4.7624999 L 4.4979167 5.5562499 L 5.55625 5.5562499 L 5.55625 5.0270832 L 5.55625 2.9104166 L 5.159375 2.9104166 L 5.159375 2.3812499 L 5.55625 2.3812499 L 5.55625 2.1166666 L 0.79375 2.1166666 z M 1.4552083 2.3812499 L 1.7197917 2.3812499 L 1.7197917 2.9104166 L 1.4552083 2.9104166 L 1.4552083 2.3812499 z M 1.984375 2.3812499 L 2.2489583 2.3812499 L 2.2489583 2.9104166 L 1.984375 2.9104166 L 1.984375 2.3812499 z M 2.5135417 2.3812499 L 2.778125 2.3812499 L 2.778125 2.9104166 L 2.5135417 2.9104166 L 2.5135417 2.3812499 z M 3.0427083 2.3812499 L 3.3072917 2.3812499 L 3.3072917 2.9104166 L 3.0427083 2.9104166 L 3.0427083 2.3812499 z M 3.571875 2.3812499 L 3.8364583 2.3812499 L 3.8364583 2.9104166 L 3.571875 2.9104166 L 3.571875 2.3812499 z M 4.1010417 2.3812499 L 4.365625 2.3812499 L 4.365625 2.9104166 L 4.1010417 2.9104166 L 4.1010417 2.3812499 z M 4.6302083 2.3812499 L 4.8947917 2.3812499 L 4.8947917 2.9104166 L 4.6302083 2.9104166 L 4.6302083 2.3812499 z " /></g></svg>
