<?xml version="1.0" encoding="UTF-8" standalone="no"?>
<!-- Created with Inkscape (http://www.inkscape.org/) -->

<svg
   width="24"
   height="24"
   viewBox="0 0 6.3499999 6.35"
   version="1.1"
   id="svg1"
   xml:space="preserve"
   inkscape:export-filename="IfcQuantitySet.png"
   inkscape:export-xdpi="96"
   inkscape:export-ydpi="96"
   sodipodi:docname="IfcContext.svg"
   inkscape:version="1.4 (86a8ad7, 2024-10-11)"
   xmlns:inkscape="http://www.inkscape.org/namespaces/inkscape"
   xmlns:sodipodi="http://sodipodi.sourceforge.net/DTD/sodipodi-0.dtd"
   xmlns="http://www.w3.org/2000/svg"
   xmlns:svg="http://www.w3.org/2000/svg"><sodipodi:namedview
     id="namedview1"
     pagecolor="#ffffff"
     bordercolor="#000000"
     borderopacity="0.25"
     inkscape:showpageshadow="2"
     inkscape:pageopacity="0.0"
     inkscape:pagecheckerboard="0"
     inkscape:deskcolor="#d1d1d1"
     inkscape:document-units="mm"
     showgrid="true"
     inkscape:zoom="16.000001"
     inkscape:cx="9.0624996"
     inkscape:cy="15.468749"
     inkscape:window-width="2560"
     inkscape:window-height="1377"
     inkscape:window-x="-8"
     inkscape:window-y="-8"
     inkscape:window-maximized="1"
     inkscape:current-layer="svg1"
     showguides="true"><inkscape:grid
       id="grid1"
       units="px"
       originx="0"
       originy="0"
       spacingx="0.26458332"
       spacingy="0.26458332"
       empcolor="#0099e5"
       empopacity="0.30196078"
       color="#0099e5"
       opacity="0.14902"
       empspacing="5"
       enabled="true"
       visible="true" /></sodipodi:namedview><defs
     id="defs1"><inkscape:path-effect
       effect="fillet_chamfer"
       id="path-effect36"
       is_visible="true"
       lpeversion="1"
       nodesatellites_param="F,0,0,1,0,25.64425,0,1 @ F,0,0,1,0,25.524718,0,1 @ F,0,0,1,0,22.845291,0,1 @ F,0,0,1,0,25.524718,0,1"
       radius="0"
       unit="px"
       method="auto"
       mode="F"
       chamfer_steps="1"
       flexible="false"
       use_knot_distance="true"
       apply_no_radius="true"
       apply_with_radius="true"
       only_selected="false"
       hide_knots="false" /><style
       id="style1">.cls-1{fill:#1c1c1b;}.cls-1,.cls-2,.cls-3,.cls-4,.cls-5{stroke-width:0px;}.cls-2{fill:#9f358b;}.cls-3{fill:#009eb0;}.cls-4{fill:#f00023;}.cls-5{fill:#004f9f;}</style><marker
       id="DistanceX"
       orient="auto"
       refX="0.0"
       refY="0.0"
       style="overflow:visible"><path
         d="M 3,-3 L -3,3 M 0,-5 L  0,5"
         style="stroke:#000000; stroke-width:0.5"
         id="path1-0" /></marker><pattern
       id="Hatch"
       patternUnits="userSpaceOnUse"
       width="8"
       height="8"
       x="0"
       y="0"><path
         d="M8 4 l-4,4"
         stroke="#000000"
         stroke-width="0.25"
         linecap="square"
         id="path2-9" /><path
         d="M6 2 l-4,4"
         stroke="#000000"
         stroke-width="0.25"
         linecap="square"
         id="path3-4" /><path
         d="M4 0 l-4,4"
         stroke="#000000"
         stroke-width="0.25"
         linecap="square"
         id="path4-88" /></pattern><symbol
       id="*Model_Space" /><symbol
       id="*Paper_Space" /><symbol
       id="*Paper_Space0" /></defs><g
     inkscape:groupmode="layer"
     id="layer5"
     inkscape:label="IfcContext"
     style="display:inline"><path
       id="path28"
       style="fill:#000000;fill-opacity:0.1;stroke-width:0.00661457"
       d="m 3.1740191,0.50214842 c -0.3649895,0 -0.7193227,0.072081 -1.0449218,0.2148438 C 1.8146654,0.85485842 1.5303136,1.0447982 1.2892535,1.2833984 1.0469358,1.5232435 0.85385693,1.8108791 0.71698795,2.1310547 c -0.1400301,0.3275704 -0.2089844,0.680257 -0.2089844,1.0429687 0,0.056768 0.00189,0.1062038 0.00391,0.1464844 0.00193,0.038542 0.00394,0.086302 0.00977,0.1445313 0.026304,0.029226 0.055783,0.055429 0.087891,0.078125 -0.164746,0.051912 -0.2937907,0.1809571 -0.3457031,0.3457031 v 0.4765625 c -4.26e-5,0.2923403 0.2369566,0.5293395 0.5292969,0.5292969 H 2.2228558 c 0.073854,0 0.080342,0.00417 0.1308594,0.054687 0.048764,0.048764 0.052734,0.053534 0.052734,0.1308593 V 5.3185547 C 2.406407,5.6108916 2.643401,5.8478895 2.935738,5.8478516 H 3.4123005 C 3.7046407,5.8478942 3.9416399,5.610895 3.9415974,5.3185547 V 5.0802734 c 0,-0.073854 0.00417,-0.080342 0.054687,-0.1308593 0.050518,-0.050518 0.057006,-0.054687 0.1308592,-0.054687 h 1.429688 C 5.8491719,4.8947692 6.0861711,4.65777 6.0861285,4.3654297 V 3.8888672 C 6.0339212,3.7265193 5.9066795,3.5992776 5.7443316,3.5470703 c 0.033002,-0.023799 0.063149,-0.051325 0.089844,-0.082031 0.00582,-0.058212 0.00784,-0.106007 0.00977,-0.1445313 0.00202,-0.040316 0.00391,-0.089734 0.00391,-0.1464844 0,-0.3649895 -0.072465,-0.7196531 -0.2148438,-1.046875 C 5.4946907,1.8092718 5.3037223,1.5244297 5.0646441,1.2853515 4.8255661,1.0462735 4.5407244,0.85530502 4.2228474,0.71699222 3.8947362,0.57422632 3.5390087,0.50214842 3.1740191,0.50214842 Z"
       sodipodi:nodetypes="sssssccccccsssccccscscccccsscsss" /><path
       d="m 123,-440 q -1,-10 -1.5,-20 -0.5,-10 -0.5,-20 0,-75 28,-140.5 28,-65.5 77,-114 49,-48.5 114,-77 65,-28.5 140,-28.5 75,0 140.5,28.5 65.5,28.5 114,77 48.5,48.5 77,114 28.5,65.5 28.5,140.5 0,10 -0.5,20 -0.5,10 -1.5,20 h -81 q 2,-10 2.5,-20 0.5,-10 0.5,-20 0,-10 -0.5,-20 -0.5,-10 -2.5,-20 H 639 q 1,10 1,20 v 40 q 0,10 -1,20 h -79 v -33 q 0,-12 -0.5,-24 -0.5,-12 -1.5,-23 H 403 q -1,11 -1.5,23 -0.5,12 -0.5,24 v 33 h -79 q -1,-10 -1,-20 v -40 q 0,-10 1,-20 H 204 q -2,10 -2.5,20 -0.5,10 -0.5,20 0,10 0.5,20 0.5,10 2.5,20 z m 105,-160 h 103 q 8,-43 20,-77.5 12,-34.5 26,-62.5 -48,18 -87,54.5 -39,36.5 -62,85.5 z m 186,0 h 132 q -10,-43 -25,-84 -15,-41 -41,-76 -26,35 -41.5,76 -15.5,41 -24.5,84 z m 216,0 H 733 Q 710,-649 670.5,-685.5 631,-722 583,-740 q 14,30 26.5,63.5 12.5,33.5 20.5,76.5 z m -190,480 v -40 q 0,-50 -35,-85 -35,-35 -85,-35 H 80 v -80 h 240 q 48,0 89.5,21 41.5,21 70.5,59 29,-38 70.5,-59 41.5,-21 89.5,-21 h 240 v 80 H 640 q -50,0 -85,35 -35,35 -35,85 v 40 z"
       id="path1-6"
       style="fill:#000000;fill-opacity:1;stroke-width:1.11111"
       transform="matrix(0.00595312,0,0,0.00595312,0.31750241,6.0324976)" /></g></svg>
