<?xml version="1.0" encoding="UTF-8" standalone="no"?>
<!-- Created with Inkscape (http://www.inkscape.org/) -->

<svg
   width="24"
   height="24"
   viewBox="0 0 6.3499999 6.35"
   version="1.1"
   id="svg1"
   xml:space="preserve"
   inkscape:export-filename="IfcQuantitySet.png"
   inkscape:export-xdpi="96"
   inkscape:export-ydpi="96"
   sodipodi:docname="IfcGetInfoByType.svg"
   inkscape:version="1.4 (86a8ad7, 2024-10-11)"
   xmlns:inkscape="http://www.inkscape.org/namespaces/inkscape"
   xmlns:sodipodi="http://sodipodi.sourceforge.net/DTD/sodipodi-0.dtd"
   xmlns="http://www.w3.org/2000/svg"
   xmlns:svg="http://www.w3.org/2000/svg"><sodipodi:namedview
     id="namedview1"
     pagecolor="#ffffff"
     bordercolor="#000000"
     borderopacity="0.25"
     inkscape:showpageshadow="2"
     inkscape:pageopacity="0.0"
     inkscape:pagecheckerboard="0"
     inkscape:deskcolor="#d1d1d1"
     inkscape:document-units="mm"
     showgrid="true"
     inkscape:zoom="22.627418"
     inkscape:cx="13.435028"
     inkscape:cy="10.142562"
     inkscape:window-width="1920"
     inkscape:window-height="1137"
     inkscape:window-x="2552"
     inkscape:window-y="-8"
     inkscape:window-maximized="1"
     inkscape:current-layer="layer6"
     showguides="true"><inkscape:grid
       id="grid1"
       units="px"
       originx="0"
       originy="0"
       spacingx="0.26458332"
       spacingy="0.26458332"
       empcolor="#0099e5"
       empopacity="0.30196078"
       color="#0099e5"
       opacity="0.14902"
       empspacing="5"
       enabled="true"
       visible="true" /></sodipodi:namedview><defs
     id="defs1"><inkscape:path-effect
       effect="fillet_chamfer"
       id="path-effect36"
       is_visible="true"
       lpeversion="1"
       nodesatellites_param="F,0,0,1,0,25.64425,0,1 @ F,0,0,1,0,25.524718,0,1 @ F,0,0,1,0,22.845291,0,1 @ F,0,0,1,0,25.524718,0,1"
       radius="0"
       unit="px"
       method="auto"
       mode="F"
       chamfer_steps="1"
       flexible="false"
       use_knot_distance="true"
       apply_no_radius="true"
       apply_with_radius="true"
       only_selected="false"
       hide_knots="false" /><style
       id="style1">.cls-1{fill:#1c1c1b;}.cls-1,.cls-2,.cls-3,.cls-4,.cls-5{stroke-width:0px;}.cls-2{fill:#9f358b;}.cls-3{fill:#009eb0;}.cls-4{fill:#f00023;}.cls-5{fill:#004f9f;}</style><marker
       id="DistanceX"
       orient="auto"
       refX="0.0"
       refY="0.0"
       style="overflow:visible"><path
         d="M 3,-3 L -3,3 M 0,-5 L  0,5"
         style="stroke:#000000; stroke-width:0.5"
         id="path1-0" /></marker><pattern
       id="Hatch"
       patternUnits="userSpaceOnUse"
       width="8"
       height="8"
       x="0"
       y="0"><path
         d="M8 4 l-4,4"
         stroke="#000000"
         stroke-width="0.25"
         linecap="square"
         id="path2-9" /><path
         d="M6 2 l-4,4"
         stroke="#000000"
         stroke-width="0.25"
         linecap="square"
         id="path3-4" /><path
         d="M4 0 l-4,4"
         stroke="#000000"
         stroke-width="0.25"
         linecap="square"
         id="path4-88" /></pattern><symbol
       id="*Model_Space" /><symbol
       id="*Paper_Space" /><symbol
       id="*Paper_Space0" /></defs><g
     inkscape:groupmode="layer"
     id="layer6"
     inkscape:label="IfcGetIdByType"
     style="display:inline"><path
       id="path3"
       style="display:inline;fill:#000000;stroke-width:0.00661458;fill-opacity:0.1"
       d="m 2.5149114,0.26491139 c -0.6030959,0 -1.1710223,0.23352217 -1.59374999,0.65625 -0.4227279,0.42272771 -0.65625,0.99065411 -0.65625,1.59375001 0,0.6030958 0.2335222,1.1710222 0.65625,1.59375 0.42345829,0.4234585 0.99208549,0.6542968 1.59374999,0.6542968 0.2486032,0 0.4938438,-0.039507 0.7265625,-0.1230468 0.066434,-0.023848 0.118399,-0.0719 0.1816406,-0.1015625 l 1.390625,1.3925781 a 0.5284383,0.5284383 0 0 0 0.7460938,0 L 5.930927,5.5598332 a 0.5284383,0.5284383 0 0 0 0,-0.7460937 L 4.5383489,3.4231145 c 0.029663,-0.063242 0.077714,-0.1152064 0.1015625,-0.1816406 0.082343,-0.2293834 0.125,-0.4744135 0.125,-0.7265625 0,-0.6030959 -0.2335221,-1.1710223 -0.65625,-1.59375001 -0.4227277,-0.42272783 -0.9906541,-0.65625 -1.59375,-0.65625 z m 0,1.58789061 c 0.2070229,0 0.3281513,0.048854 0.4707031,0.1914063 0.1425518,0.1425518 0.1914063,0.2636802 0.1914063,0.4707031 0,0.2070227 -0.048854,0.328151 -0.1914063,0.4707031 -0.1425519,0.1425518 -0.2636803,0.1914062 -0.4707031,0.1914063 -0.2070228,0 -0.3281512,-0.048855 -0.4707031,-0.1914063 C 1.9016565,2.8430627 1.852802,2.7219342 1.852802,2.5149114 1.852802,2.3078885 1.901656,2.1867603 2.0442083,2.0442083 2.1867601,1.9016564 2.3078886,1.852802 2.5149114,1.852802 Z" /><path
       d="M 5.1858323,5.5562488 3.5189582,3.8893746 q -0.1984374,0.15875 -0.4564061,0.2513541 -0.2579686,0.092604 -0.5490101,0.092604 -0.7209892,0 -1.22039,-0.4994008 -0.4994008,-0.4994008 -0.4994008,-1.22039 0,-0.7209892 0.4994008,-1.22039 0.4994008,-0.49940075 1.22039,-0.49940075 0.7209892,0 1.22039,0.49940075 0.4994008,0.4994008 0.4994008,1.22039 0,0.2910415 -0.092604,0.5490101 -0.092604,0.2579688 -0.2513541,0.4564062 L 5.5562488,5.1858323 Z M 2.513542,3.7041665 q 0.4960935,0 0.8433589,-0.3472654 0.3472655,-0.3472655 0.3472655,-0.843359 0,-0.4960935 -0.3472655,-0.843359 Q 3.0096355,1.3229176 2.513542,1.3229176 q -0.4960935,0 -0.843359,0.3472654 -0.3472654,0.3472656 -0.3472654,0.8433591 0,0.4960935 0.3472654,0.8433589 0.3472655,0.3472654 0.843359,0.3472655 z"
       id="path1"
       style="fill:#000000;stroke-width:0.00661458;fill-opacity:1" /></g></svg>
