<?xml version="1.0" encoding="UTF-8" standalone="no"?>
<!-- Created with Inkscape (http://www.inkscape.org/) -->

<svg
   width="24"
   height="24"
   viewBox="0 0 6.3499999 6.35"
   version="1.1"
   id="svg1"
   xml:space="preserve"
   inkscape:export-filename="IfcQuantitySet.png"
   inkscape:export-xdpi="96"
   inkscape:export-ydpi="96"
   sodipodi:docname="IfcGetInfoByGuid.svg"
   inkscape:version="1.4 (86a8ad7, 2024-10-11)"
   xmlns:inkscape="http://www.inkscape.org/namespaces/inkscape"
   xmlns:sodipodi="http://sodipodi.sourceforge.net/DTD/sodipodi-0.dtd"
   xmlns="http://www.w3.org/2000/svg"
   xmlns:svg="http://www.w3.org/2000/svg"><sodipodi:namedview
     id="namedview1"
     pagecolor="#ffffff"
     bordercolor="#000000"
     borderopacity="0.25"
     inkscape:showpageshadow="2"
     inkscape:pageopacity="0.0"
     inkscape:pagecheckerboard="0"
     inkscape:deskcolor="#d1d1d1"
     inkscape:document-units="mm"
     showgrid="true"
     inkscape:zoom="22.627418"
     inkscape:cx="14.341009"
     inkscape:cy="10.54031"
     inkscape:window-width="1920"
     inkscape:window-height="1137"
     inkscape:window-x="2552"
     inkscape:window-y="-8"
     inkscape:window-maximized="1"
     inkscape:current-layer="layer6"
     showguides="true"><inkscape:grid
       id="grid1"
       units="px"
       originx="0"
       originy="0"
       spacingx="0.26458332"
       spacingy="0.26458332"
       empcolor="#0099e5"
       empopacity="0.30196078"
       color="#0099e5"
       opacity="0.14902"
       empspacing="5"
       enabled="true"
       visible="true" /></sodipodi:namedview><defs
     id="defs1"><inkscape:path-effect
       effect="fillet_chamfer"
       id="path-effect36"
       is_visible="true"
       lpeversion="1"
       nodesatellites_param="F,0,0,1,0,25.64425,0,1 @ F,0,0,1,0,25.524718,0,1 @ F,0,0,1,0,22.845291,0,1 @ F,0,0,1,0,25.524718,0,1"
       radius="0"
       unit="px"
       method="auto"
       mode="F"
       chamfer_steps="1"
       flexible="false"
       use_knot_distance="true"
       apply_no_radius="true"
       apply_with_radius="true"
       only_selected="false"
       hide_knots="false" /><style
       id="style1">.cls-1{fill:#1c1c1b;}.cls-1,.cls-2,.cls-3,.cls-4,.cls-5{stroke-width:0px;}.cls-2{fill:#9f358b;}.cls-3{fill:#009eb0;}.cls-4{fill:#f00023;}.cls-5{fill:#004f9f;}</style><marker
       id="DistanceX"
       orient="auto"
       refX="0.0"
       refY="0.0"
       style="overflow:visible"><path
         d="M 3,-3 L -3,3 M 0,-5 L  0,5"
         style="stroke:#000000; stroke-width:0.5"
         id="path1-0" /></marker><pattern
       id="Hatch"
       patternUnits="userSpaceOnUse"
       width="8"
       height="8"
       x="0"
       y="0"><path
         d="M8 4 l-4,4"
         stroke="#000000"
         stroke-width="0.25"
         linecap="square"
         id="path2-9" /><path
         d="M6 2 l-4,4"
         stroke="#000000"
         stroke-width="0.25"
         linecap="square"
         id="path3-4" /><path
         d="M4 0 l-4,4"
         stroke="#000000"
         stroke-width="0.25"
         linecap="square"
         id="path4-88" /></pattern><symbol
       id="*Model_Space" /><symbol
       id="*Paper_Space" /><symbol
       id="*Paper_Space0" /></defs><g
     inkscape:groupmode="layer"
     id="layer6"
     inkscape:label="IfcGetInfoByGuid"
     style="display:inline"><path
       id="path2"
       style="display:inline;stroke-width:0.0066146;fill:#000000;fill-opacity:0.1"
       transform="translate(-6.0914089,0.26566733)"
       d="M 9.2597656,0 C 8.9640804,0 8.6717039,0.0385313 8.3867188,0.11328125 8.1057957,0.18696595 7.8327236,0.29210957 7.5722656,0.43164063 a 0.52935022,0.52935022 0 0 0 -0.03125,0.0175781 C 7.4356997,0.51503968 7.3093049,0.64320087 7.2578125,0.81054688 7.2019158,0.99222029 7.2417679,1.1690822 7.3027344,1.2910156 c 0.00882,0.017641 0.035658,0.023734 0.046875,0.041016 C 7.1325084,1.5044346 6.8850589,1.6398329 6.71875,1.8671875 6.6313473,1.9854668 6.5617299,2.1974104 6.5976562,2.3769531 c 0.03118,0.1558926 0.1413588,0.297354 0.2480469,0.3808594 0.02393,0.018513 0.062489,0.012068 0.091797,0.027344 -0.082944,0.2426786 -0.15625,0.4908823 -0.15625,0.7558593 0,0.1916265 0.015978,0.3794952 0.046875,0.5625 0.031458,0.1863323 0.081225,0.3728841 0.1523437,0.5585938 3.01e-4,8.024e-4 0.00165,0.00115 0.00195,0.00195 2.319e-4,6.041e-4 -2.324e-4,0.00135 0,0.00195 0.054745,0.142401 0.1893802,0.2928045 0.3320312,0.359375 0.1449141,0.067619 0.3449109,0.079154 0.5039063,0.019531 0.01706,-0.0064 0.026062,-0.028767 0.042969,-0.037109 0.1249268,0.1903359 0.2346559,0.3862862 0.4023438,0.5625 a 0.52935022,0.52935022 0 0 0 0.00781,0.00977 c 0.112873,0.1128736 0.301805,0.1894531 0.4589844,0.1894531 0.1571796,0 0.3543723,-0.086794 0.4570312,-0.1894531 0.027479,-0.027479 0.026654,-0.086332 0.050781,-0.1230469 0.1954643,0.1092975 0.3429918,0.2898492 0.5664062,0.3457032 a 0.52935022,0.52935022 0 0 0 0.013672,0.00391 c 0.1670647,0.037128 0.4015796,-0.013169 0.5429686,-0.1308594 0.0803,-0.066922 0.178731,-0.1851725 0.220703,-0.3320312 a 0.52935022,0.52935022 0 0 0 0.0039,-0.015625 c 4.3e-4,-0.00173 -4.17e-4,-0.00412 0,-0.00586 0.09954,-0.00569 0.19113,-0.022266 0.28125,-0.046875 0.14059,-0.036399 0.27297,-0.130692 0.349609,-0.2226562 0.109893,-0.1318684 0.159619,-0.38661 0.123047,-0.5429688 -0.0045,-0.018913 -0.03043,-0.036874 -0.03711,-0.056641 0.0206,-0.016929 0.05287,-0.01099 0.07227,-0.029297 0.237515,-0.2241347 0.376953,-0.560131 0.376953,-0.8828125 0,-0.2677295 -0.0733,-0.5186058 -0.158203,-0.7636718 0.03451,-0.018819 0.08087,-0.0114 0.109375,-0.035156 0.09359,-0.077994 0.169917,-0.1859299 0.210938,-0.3007812 0.08584,-0.240356 -0.02692,-0.486967 -0.107422,-0.5917969 -0.165054,-0.2234503 -0.410986,-0.3541805 -0.625,-0.5234375 0.02038,-0.030516 0.05358,-0.039736 0.06836,-0.074219 0.05602,-0.1299297 0.06528,-0.28268732 0.03906,-0.40429685 -0.04532,-0.21142926 -0.200687,-0.35627904 -0.322266,-0.42382812 a 0.52935022,0.52935022 0 0 0 -0.01758,-0.009766 C 10.689148,0.28174529 10.417987,0.17889135 10.136719,0.10742187 9.8503112,0.03464651 9.5560603,0 9.2597656,0 Z" /><path
       d="m 481,-781 q 106,0 200,45.5 94,45.5 157,131.5 7,9 4.5,16 -2.5,7 -8.5,12 -6,5 -14,4.5 -8,-0.5 -14,-8.5 Q 751,-658 664.5,-699.5 578,-741 481,-741 q -97,0 -182,41.5 -85,41.5 -141,119.5 -6,9 -14,10 -8,1 -14,-4 -7,-5 -8.5,-12.5 -1.5,-7.5 4.5,-15.5 62,-85 155.5,-132 93.5,-47 199.5,-47 z m 0,94 q 135,0 232,90 97,90 97,223 0,50 -35.5,83.5 Q 739,-257 688,-257 637,-257 600.5,-290.5 564,-324 564,-374 564,-407 539.5,-429.5 515,-452 481,-452 q -34,0 -58.5,22.5 -24.5,22.5 -24.5,55.5 0,97 57.5,162 57.5,65 148.5,91 9,3 12,10 3,7 1,15 -2,7 -8,12 -6,5 -15,3 -104,-26 -170,-103.5 -66,-77.5 -66,-189.5 0,-50 36,-84 36,-34 87,-34 51,0 87,34 36,34 36,84 0,33 25,55.5 25,22.5 59,22.5 34,0 58,-22.5 24,-22.5 24,-55.5 0,-116 -85,-195 -85,-79 -203,-79 -118,0 -203,79 -85,79 -85,194 0,24 4.5,60 4.5,36 21.5,84 3,9 -0.5,16 -3.5,7 -11.5,10 -8,3 -15.5,-0.5 Q 185,-209 182,-217 167,-256 160.5,-294.5 154,-333 154,-374 q 0,-133 96.5,-223 96.5,-90 230.5,-90 z m 0,-192 q 64,0 125,15.5 61,15.5 118,44.5 9,5 10.5,12 1.5,7 -1.5,14 -3,7 -10,11 -7,4 -17,-1 -53,-27 -109.5,-41.5 Q 540,-839 481,-839 q -58,0 -114,13.5 -56,13.5 -107,42.5 -8,5 -16,2.5 -8,-2.5 -12,-10.5 -4,-8 -2,-14.5 2,-6.5 10,-11.5 56,-30 117,-46 61,-16 124,-16 z m 0,289 q 93,0 160,62.5 67,62.5 67,153.5 0,9 -5.5,14.5 -5.5,5.5 -14.5,5.5 -8,0 -14,-5.5 -6,-5.5 -6,-14.5 0,-75 -55.5,-125.5 Q 557,-550 481,-550 405,-550 350.5,-499.5 296,-449 296,-374 q 0,81 28,137.5 28,56.5 82,113.5 6,6 6,14 0,8 -6,14 -6,6 -14,6 -8,0 -14,-6 -59,-62 -90.5,-126.5 Q 256,-286 256,-374 q 0,-91 66,-153.5 66,-62.5 159,-62.5 z m -1,196 q 9,0 14.5,6 5.5,6 5.5,14 0,75 54,123 54,48 126,48 6,0 17,-1 11,-1 23,-3 9,-2 15.5,2.5 6.5,4.5 8.5,13.5 2,8 -3,14 -5,6 -13,8 -18,5 -31.5,5.5 -13.5,0.5 -16.5,0.5 -89,0 -154.5,-60 -65.5,-60 -65.5,-151 0,-8 5.5,-14 5.5,-6 14.5,-6 z"
       id="path1"
       style="display:inline;fill:#000000;stroke-width:1.10913;fill-opacity:1"
       transform="matrix(0.00596377,0,0,0.00596377,0.29939565,6.0359057)" /></g></svg>
