<?xml version="1.0" encoding="UTF-8" standalone="no"?>
<!-- Created with Inkscape (http://www.inkscape.org/) -->

<svg
   width="24"
   height="24"
   viewBox="0 0 6.3499999 6.35"
   version="1.1"
   id="svg1"
   xml:space="preserve"
   inkscape:export-filename="IfcQuantitySet.png"
   inkscape:export-xdpi="96"
   inkscape:export-ydpi="96"
   sodipodi:docname="IfcGetInfo.svg"
   inkscape:version="1.4 (86a8ad7, 2024-10-11)"
   xmlns:inkscape="http://www.inkscape.org/namespaces/inkscape"
   xmlns:sodipodi="http://sodipodi.sourceforge.net/DTD/sodipodi-0.dtd"
   xmlns:xlink="http://www.w3.org/1999/xlink"
   xmlns="http://www.w3.org/2000/svg"
   xmlns:svg="http://www.w3.org/2000/svg"><sodipodi:namedview
     id="namedview1"
     pagecolor="#ffffff"
     bordercolor="#000000"
     borderopacity="0.25"
     inkscape:showpageshadow="2"
     inkscape:pageopacity="0.0"
     inkscape:pagecheckerboard="0"
     inkscape:deskcolor="#d1d1d1"
     inkscape:document-units="mm"
     showgrid="true"
     inkscape:zoom="22.627418"
     inkscape:cx="12.727921"
     inkscape:cy="15.136504"
     inkscape:window-width="1920"
     inkscape:window-height="1137"
     inkscape:window-x="2552"
     inkscape:window-y="-8"
     inkscape:window-maximized="1"
     inkscape:current-layer="g1"
     showguides="true"><inkscape:grid
       id="grid1"
       units="px"
       originx="0"
       originy="0"
       spacingx="0.26458332"
       spacingy="0.26458332"
       empcolor="#0099e5"
       empopacity="0.30196078"
       color="#0099e5"
       opacity="0.14902"
       empspacing="5"
       enabled="true"
       visible="true" /></sodipodi:namedview><defs
     id="defs1"><inkscape:path-effect
       effect="fillet_chamfer"
       id="path-effect36"
       is_visible="true"
       lpeversion="1"
       nodesatellites_param="F,0,0,1,0,25.64425,0,1 @ F,0,0,1,0,25.524718,0,1 @ F,0,0,1,0,22.845291,0,1 @ F,0,0,1,0,25.524718,0,1"
       radius="0"
       unit="px"
       method="auto"
       mode="F"
       chamfer_steps="1"
       flexible="false"
       use_knot_distance="true"
       apply_no_radius="true"
       apply_with_radius="true"
       only_selected="false"
       hide_knots="false" /><style
       id="style1">.cls-1{fill:#1c1c1b;}.cls-1,.cls-2,.cls-3,.cls-4,.cls-5{stroke-width:0px;}.cls-2{fill:#9f358b;}.cls-3{fill:#009eb0;}.cls-4{fill:#f00023;}.cls-5{fill:#004f9f;}</style><marker
       id="DistanceX"
       orient="auto"
       refX="0.0"
       refY="0.0"
       style="overflow:visible"><path
         d="M 3,-3 L -3,3 M 0,-5 L  0,5"
         style="stroke:#000000; stroke-width:0.5"
         id="path1-0" /></marker><pattern
       id="Hatch"
       patternUnits="userSpaceOnUse"
       width="8"
       height="8"
       x="0"
       y="0"><path
         d="M8 4 l-4,4"
         stroke="#000000"
         stroke-width="0.25"
         linecap="square"
         id="path2-9" /><path
         d="M6 2 l-4,4"
         stroke="#000000"
         stroke-width="0.25"
         linecap="square"
         id="path3-4" /><path
         d="M4 0 l-4,4"
         stroke="#000000"
         stroke-width="0.25"
         linecap="square"
         id="path4-88" /></pattern><symbol
       id="*Model_Space" /><symbol
       id="*Paper_Space" /><symbol
       id="*Paper_Space0" /></defs><g
     style="fill:#e8eaed;stroke-width:1.11111"
     id="g1"
     transform="matrix(0.00595312,0,0,0.00595312,0.3175024,6.0324976)"
     inkscape:label="IfcGetInfo"><path
       style="fill:#000000;stroke-width:1.11111;fill-opacity:0.1"
       sodipodi:type="inkscape:offset"
       inkscape:radius="88.888786"
       inkscape:original="M -653.7793 -1311.5 C -709.11263 -1311.5 -761.11263 -1301 -809.7793 -1280 C -858.44597 -1259 -900.77928 -1230.5 -936.7793 -1194.5 C -972.7793 -1158.5 -1001.2793 -1116.1667 -1022.2793 -1067.5 C -1043.2793 -1018.8334 -1053.7793 -966.83335 -1053.7793 -911.5 C -1053.7793 -856.16667 -1043.2793 -804.16667 -1022.2793 -755.5 C -1001.2793 -706.83333 -972.7793 -664.5 -936.7793 -628.5 C -900.77928 -592.5 -858.44597 -564 -809.7793 -543 C -761.11263 -522 -709.11263 -511.5 -653.7793 -511.5 C -598.44597 -511.5 -546.44597 -522 -497.7793 -543 C -449.11263 -564 -406.7793 -592.5 -370.7793 -628.5 C -334.7793 -664.5 -306.2793 -706.83333 -285.2793 -755.5 C -264.2793 -804.16667 -253.7793 -856.16667 -253.7793 -911.5 C -253.7793 -966.83335 -264.2793 -1018.8334 -285.2793 -1067.5 C -306.2793 -1116.1667 -334.7793 -1158.5 -370.7793 -1194.5 C -406.7793 -1230.5 -449.11263 -1259 -497.7793 -1280 C -546.44597 -1301 -598.44597 -1311.5 -653.7793 -1311.5 z "
       xlink:href="#path2"
       id="path4"
       d="m -653.7793,-1400.3887 c -66.57829,0 -131.29805,12.9181 -191.21679,38.7735 -58.31132,25.1617 -110.586,60.211 -154.63672,104.2617 -44.05069,44.0507 -79.09999,96.3253 -104.26169,154.6367 -25.8554,59.9187 -38.7735,124.63849 -38.7735,191.2168 0,66.5783 12.9181,131.29805 38.7735,191.2168 25.1617,58.31131 60.211,110.58599 104.26169,154.63672 44.05072,44.05069 96.3254,79.09998 154.63672,104.26171 59.91874,25.85535 124.6385,38.77344 191.21679,38.77344 66.5783,0 131.29805,-12.91809 191.2168,-38.77344 58.31131,-25.16172 110.58599,-60.21099 154.63672,-104.26171 44.05072,-44.05073 79.09999,-96.32541 104.26172,-154.63672 25.85535,-59.91875 38.77343,-124.6385 38.77344,-191.2168 -10e-6,-66.57831 -12.91806,-131.2981 -38.77344,-191.2168 -25.16174,-58.3114 -60.21101,-110.586 -104.26172,-154.6367 -44.05073,-44.0507 -96.32541,-79.1 -154.63672,-104.2617 -59.91875,-25.8554 -124.6385,-38.7735 -191.2168,-38.7735 z"
       transform="translate(1133.7793,431.50001)" /><path
       d="m 440,-280 h 80 v -240 h -80 z m 40,-320 q 17,0 28.5,-11.5 Q 520,-623 520,-640 520,-657 508.5,-668.5 497,-680 480,-680 q -17,0 -28.5,11.5 -11.5,11.5 -11.5,28.5 0,17 11.5,28.5 11.5,11.5 28.5,11.5 z m 0,520 Q 397,-80 324,-111.5 251,-143 197,-197 143,-251 111.5,-324 80,-397 80,-480 q 0,-83 31.5,-156 31.5,-73 85.5,-127 54,-54 127,-85.5 73,-31.5 156,-31.5 83,0 156,31.5 73,31.5 127,85.5 54,54 85.5,127 31.5,73 31.5,156 0,83 -31.5,156 -31.5,73 -85.5,127 -54,54 -127,85.5 Q 563,-80 480,-80 Z"
       id="path1"
       style="stroke-width:1.11111;fill:#000000;fill-opacity:1" /><rect
       style="fill:#ffffff;fill-opacity:1;stroke-width:0.132292;stroke-linecap:round;stroke-linejoin:round;paint-order:markers stroke fill"
       id="rect2"
       width="0.47624961"
       height="1.4287487"
       x="2.9368751"
       y="2.9368751"
       transform="matrix(167.97915,0,0,167.97915,-53.333781,-1013.3338)" /><circle
       style="fill:#ffffff;fill-opacity:1;stroke-width:0.132292;stroke-linecap:round;stroke-linejoin:round;paint-order:markers stroke fill"
       id="path3"
       cx="3.175"
       cy="2.2225013"
       r="0.23812485"
       transform="matrix(167.97915,0,0,167.97915,-53.333781,-1013.3338)" /></g></svg>
