<?xml version="1.0" encoding="UTF-8" standalone="no"?>
<!-- Created with Inkscape (http://www.inkscape.org/) -->

<svg
   width="24"
   height="24"
   viewBox="0 0 6.3499999 6.35"
   version="1.1"
   id="svg1"
   xml:space="preserve"
   inkscape:export-filename="IfcQuantitySet.png"
   inkscape:export-xdpi="96"
   inkscape:export-ydpi="96"
   sodipodi:docname="IfcHopperModel.svg"
   inkscape:version="1.4 (86a8ad7, 2024-10-11)"
   xmlns:inkscape="http://www.inkscape.org/namespaces/inkscape"
   xmlns:sodipodi="http://sodipodi.sourceforge.net/DTD/sodipodi-0.dtd"
   xmlns="http://www.w3.org/2000/svg"
   xmlns:svg="http://www.w3.org/2000/svg"><sodipodi:namedview
     id="namedview1"
     pagecolor="#ffffff"
     bordercolor="#000000"
     borderopacity="0.25"
     inkscape:showpageshadow="2"
     inkscape:pageopacity="0.0"
     inkscape:pagecheckerboard="0"
     inkscape:deskcolor="#d1d1d1"
     inkscape:document-units="mm"
     showgrid="true"
     inkscape:zoom="22.627418"
     inkscape:cx="1.281631"
     inkscape:cy="13.368737"
     inkscape:window-width="2560"
     inkscape:window-height="1377"
     inkscape:window-x="-8"
     inkscape:window-y="-8"
     inkscape:window-maximized="1"
     inkscape:current-layer="layer3"
     showguides="true"><inkscape:grid
       id="grid1"
       units="px"
       originx="0"
       originy="0"
       spacingx="0.26458332"
       spacingy="0.26458332"
       empcolor="#0099e5"
       empopacity="0.30196078"
       color="#0099e5"
       opacity="0.14902"
       empspacing="5"
       enabled="true"
       visible="true" /></sodipodi:namedview><defs
     id="defs1"><inkscape:path-effect
       effect="fillet_chamfer"
       id="path-effect36"
       is_visible="true"
       lpeversion="1"
       nodesatellites_param="F,0,0,1,0,25.64425,0,1 @ F,0,0,1,0,25.524718,0,1 @ F,0,0,1,0,22.845291,0,1 @ F,0,0,1,0,25.524718,0,1"
       radius="0"
       unit="px"
       method="auto"
       mode="F"
       chamfer_steps="1"
       flexible="false"
       use_knot_distance="true"
       apply_no_radius="true"
       apply_with_radius="true"
       only_selected="false"
       hide_knots="false" /><style
       id="style1">.cls-1{fill:#1c1c1b;}.cls-1,.cls-2,.cls-3,.cls-4,.cls-5{stroke-width:0px;}.cls-2{fill:#9f358b;}.cls-3{fill:#009eb0;}.cls-4{fill:#f00023;}.cls-5{fill:#004f9f;}</style><marker
       id="DistanceX"
       orient="auto"
       refX="0.0"
       refY="0.0"
       style="overflow:visible"><path
         d="M 3,-3 L -3,3 M 0,-5 L  0,5"
         style="stroke:#000000; stroke-width:0.5"
         id="path1-0" /></marker><pattern
       id="Hatch"
       patternUnits="userSpaceOnUse"
       width="8"
       height="8"
       x="0"
       y="0"><path
         d="M8 4 l-4,4"
         stroke="#000000"
         stroke-width="0.25"
         linecap="square"
         id="path2-9" /><path
         d="M6 2 l-4,4"
         stroke="#000000"
         stroke-width="0.25"
         linecap="square"
         id="path3-4" /><path
         d="M4 0 l-4,4"
         stroke="#000000"
         stroke-width="0.25"
         linecap="square"
         id="path4-88" /></pattern><symbol
       id="*Model_Space" /><symbol
       id="*Paper_Space" /><symbol
       id="*Paper_Space0" /></defs><g
     inkscape:groupmode="layer"
     id="layer3"
     inkscape:label="IfcHopperModel"
     style="display:inline"><path
       id="path45"
       style="fill:#000000;fill-opacity:0.1;stroke-width:0.108985"
       class="cls-4"
       d="M 1.7929687,1.2324219 C 1.5526148,1.2328847 1.3578847,1.4276148 1.3574219,1.6679687 v 1.1210938 c -0.056663,0.02808 -0.1240674,0.023373 -0.171875,0.068359 l -0.5996094,0.5625 C 0.33669164,3.6544619 0.33104775,4.0401056 0.53515625,4.3066406 0.37570981,4.5581629 0.35699998,4.8847768 0.56835937,5.109375 L 1.1308594,5.7089844 c 0.2345256,0.2488964 0.6201021,0.2549616 0.8867187,0.050781 0.2515173,0.1594337 0.5781395,0.1781428 0.8027344,-0.033203 6.521e-4,-6.479e-4 0.0013,-0.0013 0.00195,-0.00195 L 2.9628906,5.5898437 H 4.1914062 C 4.4317601,5.5893809 4.6264903,5.3946508 4.6269531,5.1542969 L 4.625,2.9765625 C 4.6252343,2.8609416 4.5795746,2.7499534 4.4980469,2.6679688 L 3.1914063,1.359375 C 3.1094216,1.2778473 2.9984334,1.2321876 2.8828125,1.2324219 Z"
       sodipodi:nodetypes="ccccccccccccccccccc"
       transform="matrix(1.2138546,0,0,1.2138546,0.13014728,-1.1568644)" /><path
       style="fill:#ffffff;fill-opacity:1;stroke:#000000;stroke-width:0.264583;stroke-linecap:round;stroke-linejoin:round;stroke-dasharray:none;stroke-opacity:1;paint-order:markers fill stroke"
       d="M 2.2497955,0.92380775 V 5.1571411 H 5.1602121 L 5.1593749,2.5135417 3.5727121,0.92380775 Z"
       id="path14"
       sodipodi:nodetypes="cccccc" /><path
       style="fill:none;fill-opacity:0.1;stroke:#000000;stroke-width:0.264583;stroke-linecap:round;stroke-linejoin:round;stroke-dasharray:none;stroke-opacity:1;paint-order:markers fill stroke"
       d="M 3.5727121,0.92380777 V 2.5135417"
       id="path10" /><path
       style="fill:none;fill-opacity:0.1;stroke:#000000;stroke-width:0.264583;stroke-linecap:round;stroke-linejoin:round;stroke-dasharray:none;stroke-opacity:1;paint-order:markers fill stroke"
       d="M 5.159375,2.5135417 H 3.5735493"
       id="path11" /><g
       id="g14"
       transform="matrix(1.2138546,0,0,1.2138546,0.0956733,-1.1904634)"
       style="stroke-width:0.823822"><path
         id="path53"
         style="fill:#ffffff;fill-opacity:1;stroke:none;stroke-width:0.108985;stroke-dasharray:none;stroke-opacity:1"
         class="cls-4"
         d="m 13.794812,4.6437891 c -0.05933,-0.00179 -0.119371,0.0191 -0.166031,0.063007 l -0.207327,0.1954062 c -0.0077,0.00725 -0.01478,0.015086 -0.02129,0.023415 L 13.213702,4.7276562 c -0.08782,-0.093317 -0.234486,-0.098031 -0.327806,-0.010217 L 12.28648,5.2815205 c -0.09332,0.087814 -0.09761,0.2344888 -0.0098,0.3278058 l 0.195407,0.2077522 0.02299,0.022137 -0.197535,0.1856147 c -0.09332,0.087814 -0.09761,0.2344888 -0.0098,0.3278058 l 0.564082,0.5994163 c 0.08782,0.093197 0.234485,0.097605 0.327805,0.00979 l 0.207753,-0.1954064 c 0.0077,-0.00725 0.01469,-0.015128 0.02171,-0.022989 l 0.185615,0.1971093 c 0.08782,0.093317 0.234486,0.098031 0.327806,0.010217 L 14.521945,6.386694 c 0.09332,-0.087814 0.09761,-0.2344888 0.0098,-0.3278058 h 4.26e-4 L 14.336331,5.851136 c -0.0072,-0.00769 -0.01465,-0.01482 -0.02256,-0.021712 l 0.19711,-0.1856147 c 0.0932,-0.087814 0.09761,-0.2344887 0.0098,-0.3278057 L 13.956587,4.7165875 c -0.04385,-0.046658 -0.102448,-0.071004 -0.161775,-0.072798 z"
         sodipodi:nodetypes="sccccccccccsccccccccccccccs"
         transform="translate(-11.419856,-1.4686535)" /><path
         class="cls-5"
         d="m 110.21,362.77 c 7.34,7.8 19.6,8.17 27.4,0.83 l 25.53,-24.03 -16.28,-17.3 -39.64,37.31 3,3.18 z"
         id="path1"
         style="stroke:none;stroke-width:9.10949;stroke-dasharray:none;stroke-opacity:1"
         transform="matrix(0.0119641,0,0,0.01196372,0.01035775,0.30240864)" /><path
         class="cls-5"
         d="m 70.75,320.85 16.34,17.36 17.3,-16.28 -13.34,-14.18 43.6,-41.04 49.75,52.85 3.3,-3.11 c 7.79,-7.34 8.16,-19.6 0.83,-27.4 l -39.46,-41.92 c -7.34,-7.8 -19.6,-8.17 -27.4,-0.83 l -50.09,47.15 c -7.8,7.34 -8.17,19.6 -0.83,27.4 z"
         id="path2"
         style="stroke:none;stroke-width:9.10949;stroke-dasharray:none;stroke-opacity:1"
         transform="matrix(0.0119641,0,0,0.01196372,0.01035775,0.30240864)" /><path
         class="cls-2"
         d="m 188.14,394.42 c 7.79,-7.34 8.17,-19.6 0.83,-27.4 l -24.03,-25.53 -17.3,16.28 37.31,39.64 3.18,-3 z"
         id="path3"
         style="stroke:none;stroke-width:9.10949;stroke-dasharray:none;stroke-opacity:1"
         transform="matrix(0.0119641,0,0,0.01196372,0.01035775,0.30240864)" /><path
         class="cls-2"
         d="m 146.21,433.88 17.36,-16.34 -16.28,-17.3 -14.18,13.34 -41.04,-43.6 52.85,-49.75 -3.11,-3.3 c -7.34,-7.8 -19.6,-8.17 -27.4,-0.83 l -41.92,39.46 c -7.8,7.34 -8.17,19.6 -0.83,27.4 l 47.15,50.09 c 7.34,7.79 19.6,8.17 27.4,0.83 z"
         id="path4"
         style="stroke:none;stroke-width:9.10949;stroke-dasharray:none;stroke-opacity:1"
         transform="matrix(0.0119641,0,0,0.01196372,0.01035775,0.30240864)" /><path
         class="cls-3"
         d="m 219.79,316.49 c -7.34,-7.8 -19.6,-8.17 -27.4,-0.83 l -25.53,24.03 16.28,17.3 39.64,-37.31 -3,-3.18 z"
         id="path5"
         style="stroke:none;stroke-width:9.10949;stroke-dasharray:none;stroke-opacity:1"
         transform="matrix(0.0119641,0,0,0.01196372,0.01035775,0.30240864)" /><path
         class="cls-3"
         d="m 259.25,358.41 -16.34,-17.36 -17.3,16.28 13.34,14.17 -43.61,41.04 -49.75,-52.85 -3.3,3.11 c -7.79,7.34 -8.17,19.6 -0.83,27.4 l 39.46,41.92 c 7.34,7.8 19.6,8.17 27.4,0.83 l 50.09,-47.15 c 7.8,-7.34 8.17,-19.6 0.83,-27.4"
         id="path6"
         style="stroke:none;stroke-width:9.10949;stroke-dasharray:none;stroke-opacity:1"
         transform="matrix(0.0119641,0,0,0.01196372,0.01035775,0.30240864)" /><path
         class="cls-4"
         d="m 141.86,284.84 c -7.8,7.34 -8.17,19.6 -0.83,27.4 l 24.03,25.52 17.3,-16.28 -37.31,-39.64 -3.18,3 z"
         id="path7"
         style="stroke:none;stroke-width:9.10949;stroke-dasharray:none;stroke-opacity:1"
         transform="matrix(0.0119641,0,0,0.01196372,0.01035775,0.30240864)" /><path
         class="cls-4"
         d="m 183.78,245.38 -17.36,16.34 16.28,17.3 14.17,-13.34 41.04,43.6 -52.85,49.75 3.11,3.3 c 7.34,7.79 19.6,8.17 27.4,0.83 l 41.92,-39.46 c 7.79,-7.34 8.17,-19.6 0.83,-27.4 l -47.15,-50.09 c -7.33,-7.8 -19.6,-8.17 -27.4,-0.83"
         id="path8"
         style="stroke:none;stroke-width:9.10949;stroke-dasharray:none;stroke-opacity:1"
         transform="matrix(0.0119641,0,0,0.01196372,0.01035775,0.30240864)" /></g></g></svg>
