<?xml version="1.0" encoding="UTF-8" standalone="no"?>
<!-- Created with Inkscape (http://www.inkscape.org/) -->

<svg
   width="24"
   height="24"
   viewBox="0 0 6.3499999 6.35"
   version="1.1"
   id="svg1"
   xml:space="preserve"
   inkscape:export-filename="IfcQuantitySet.png"
   inkscape:export-xdpi="96"
   inkscape:export-ydpi="96"
   sodipodi:docname="IfcObject.svg"
   inkscape:version="1.4 (86a8ad7, 2024-10-11)"
   xmlns:inkscape="http://www.inkscape.org/namespaces/inkscape"
   xmlns:sodipodi="http://sodipodi.sourceforge.net/DTD/sodipodi-0.dtd"
   xmlns="http://www.w3.org/2000/svg"
   xmlns:svg="http://www.w3.org/2000/svg"><sodipodi:namedview
     id="namedview1"
     pagecolor="#ffffff"
     bordercolor="#000000"
     borderopacity="0.25"
     inkscape:showpageshadow="2"
     inkscape:pageopacity="0.0"
     inkscape:pagecheckerboard="0"
     inkscape:deskcolor="#d1d1d1"
     inkscape:document-units="mm"
     showgrid="true"
     inkscape:zoom="22.627418"
     inkscape:cx="10.518213"
     inkscape:cy="11.379999"
     inkscape:window-width="2560"
     inkscape:window-height="1377"
     inkscape:window-x="-8"
     inkscape:window-y="-8"
     inkscape:window-maximized="1"
     inkscape:current-layer="svg1"
     showguides="true"><inkscape:grid
       id="grid1"
       units="px"
       originx="0"
       originy="0"
       spacingx="0.26458332"
       spacingy="0.26458332"
       empcolor="#0099e5"
       empopacity="0.30196078"
       color="#0099e5"
       opacity="0.14902"
       empspacing="5"
       enabled="true"
       visible="true" /></sodipodi:namedview><defs
     id="defs1"><inkscape:path-effect
       effect="fillet_chamfer"
       id="path-effect36"
       is_visible="true"
       lpeversion="1"
       nodesatellites_param="F,0,0,1,0,25.64425,0,1 @ F,0,0,1,0,25.524718,0,1 @ F,0,0,1,0,22.845291,0,1 @ F,0,0,1,0,25.524718,0,1"
       radius="0"
       unit="px"
       method="auto"
       mode="F"
       chamfer_steps="1"
       flexible="false"
       use_knot_distance="true"
       apply_no_radius="true"
       apply_with_radius="true"
       only_selected="false"
       hide_knots="false" /><style
       id="style1">.cls-1{fill:#1c1c1b;}.cls-1,.cls-2,.cls-3,.cls-4,.cls-5{stroke-width:0px;}.cls-2{fill:#9f358b;}.cls-3{fill:#009eb0;}.cls-4{fill:#f00023;}.cls-5{fill:#004f9f;}</style><marker
       id="DistanceX"
       orient="auto"
       refX="0.0"
       refY="0.0"
       style="overflow:visible"><path
         d="M 3,-3 L -3,3 M 0,-5 L  0,5"
         style="stroke:#000000; stroke-width:0.5"
         id="path1-0" /></marker><pattern
       id="Hatch"
       patternUnits="userSpaceOnUse"
       width="8"
       height="8"
       x="0"
       y="0"><path
         d="M8 4 l-4,4"
         stroke="#000000"
         stroke-width="0.25"
         linecap="square"
         id="path2-9" /><path
         d="M6 2 l-4,4"
         stroke="#000000"
         stroke-width="0.25"
         linecap="square"
         id="path3-4" /><path
         d="M4 0 l-4,4"
         stroke="#000000"
         stroke-width="0.25"
         linecap="square"
         id="path4-88" /></pattern><symbol
       id="*Model_Space" /><symbol
       id="*Paper_Space" /><symbol
       id="*Paper_Space0" /></defs><g
     inkscape:groupmode="layer"
     id="layer8"
     inkscape:label="IfcObject"
     style="display:inline"><path
       id="path68"
       style="fill:#000000;fill-opacity:0.1;stroke-width:0.0066146"
       transform="matrix(0.00635195,0,0,0.00635195,0.126064,6.2442304)"
       d="m 480,-941.80469 c -27.1243,0 -54.91467,7.73903 -77.99219,21.05469 -0.001,7.2e-4 -0.003,10e-4 -0.004,0.002 l -87.66211,50.28321 a 83.732791,83.732791 0 0 0 -25.86719,24.71875 83.732791,83.732791 0 0 0 -34.32813,10.14648 L 130.6875,-764.67969 A 83.732791,83.732791 0 0 0 91.076172,-709.34375 83.732791,83.732791 0 0 0 56.275391,-642 v 313.68945 c 0,26.64444 7.199442,54.61984 20.814453,78.125 a 83.732791,83.732791 0 0 0 0.01172,0.0195 c 13.601769,23.46804 34.221906,43.58865 57.263666,56.86329 a 83.732791,83.732791 0 0 0 0.0449,0.0254 L 408.25,-35.738281 a 83.732791,83.732791 0 0 0 71.75,5.480469 83.732791,83.732791 0 0 0 71.75,-5.480469 L 825.58984,-193.27734 a 83.732791,83.732791 0 0 0 0.0449,-0.0254 c 23.04176,-13.27464 43.6619,-33.39525 57.26367,-56.86329 a 83.732791,83.732791 0 0 0 0.0117,-0.0195 c 13.61501,-23.50516 20.81445,-51.48056 20.81445,-78.125 V -642 a 83.732791,83.732791 0 0 0 -34.56836,-67.20898 83.732791,83.732791 0 0 0 -40.04883,-55.6875 L 557.99219,-920.75 C 534.91467,-934.06566 507.1243,-941.80469 480,-941.80469 Z" /><path
       style="fill:#009eb0;fill-opacity:1;stroke-width:1.04135"
       d="m 480,-514.46 122.85,-70.69 -307,-177.85 -123.46,70.92 z"
       transform="matrix(0.00635195,0,0,0.00635195,0.126064,6.2442304)"
       id="path73" /><path
       style="fill:#9f358b;fill-opacity:1;stroke-width:1.04135"
       d="m 662.84,-620.23 124.54,-72.08 -271.23,-155.92 q -17.07,-9.85 -36.15,-9.85 -19.08,0 -36.15,9.85 L 356,-797.84 Z"
       transform="matrix(0.00635195,0,0,0.00635195,0.126064,6.2442304)"
       id="path72" /><path
       style="fill:#f00023;fill-opacity:1;stroke-width:1.04135"
       d="m 510,-108.31 273.84,-157.54 q 17.08,-9.84 26.62,-26.3 9.54,-16.47 9.54,-36.16 V -642 l -310,179.23 z"
       transform="matrix(0.00635195,0,0,0.00635195,0.126064,6.2442304)"
       id="path71" /><path
       style="fill:#004f9f;fill-opacity:1;stroke-width:1.04135"
       d="M 450,-108.31 V -462.77 L 140,-642 v 313.69 q 0,19.69 9.54,36.16 9.54,16.46 26.62,26.3 z"
       transform="matrix(0.00635195,0,0,0.00635195,0.126064,6.2442304)"
       id="path1-34" /></g></svg>
