<?xml version="1.0" encoding="UTF-8" standalone="no"?>
<!-- Created with Inkscape (http://www.inkscape.org/) -->

<svg
   width="24"
   height="24"
   viewBox="0 0 6.3499999 6.35"
   version="1.1"
   id="svg1"
   xml:space="preserve"
   inkscape:export-filename="IfcQuantitySet.png"
   inkscape:export-xdpi="96"
   inkscape:export-ydpi="96"
   sodipodi:docname="IfcPset.svg"
   inkscape:version="1.4 (86a8ad7, 2024-10-11)"
   xmlns:inkscape="http://www.inkscape.org/namespaces/inkscape"
   xmlns:sodipodi="http://sodipodi.sourceforge.net/DTD/sodipodi-0.dtd"
   xmlns="http://www.w3.org/2000/svg"
   xmlns:svg="http://www.w3.org/2000/svg"><sodipodi:namedview
     id="namedview1"
     pagecolor="#ffffff"
     bordercolor="#000000"
     borderopacity="0.25"
     inkscape:showpageshadow="2"
     inkscape:pageopacity="0.0"
     inkscape:pagecheckerboard="0"
     inkscape:deskcolor="#d1d1d1"
     inkscape:document-units="mm"
     showgrid="true"
     inkscape:zoom="32.000001"
     inkscape:cx="13.062499"
     inkscape:cy="12.296874"
     inkscape:window-width="2560"
     inkscape:window-height="1377"
     inkscape:window-x="-8"
     inkscape:window-y="-8"
     inkscape:window-maximized="1"
     inkscape:current-layer="svg1"
     showguides="true"><inkscape:grid
       id="grid1"
       units="px"
       originx="0"
       originy="0"
       spacingx="0.26458332"
       spacingy="0.26458332"
       empcolor="#0099e5"
       empopacity="0.30196078"
       color="#0099e5"
       opacity="0.14902"
       empspacing="5"
       enabled="true"
       visible="true" /></sodipodi:namedview><defs
     id="defs1"><inkscape:path-effect
       effect="fillet_chamfer"
       id="path-effect36"
       is_visible="true"
       lpeversion="1"
       nodesatellites_param="F,0,0,1,0,25.64425,0,1 @ F,0,0,1,0,25.524718,0,1 @ F,0,0,1,0,22.845291,0,1 @ F,0,0,1,0,25.524718,0,1"
       radius="0"
       unit="px"
       method="auto"
       mode="F"
       chamfer_steps="1"
       flexible="false"
       use_knot_distance="true"
       apply_no_radius="true"
       apply_with_radius="true"
       only_selected="false"
       hide_knots="false" /><style
       id="style1">.cls-1{fill:#1c1c1b;}.cls-1,.cls-2,.cls-3,.cls-4,.cls-5{stroke-width:0px;}.cls-2{fill:#9f358b;}.cls-3{fill:#009eb0;}.cls-4{fill:#f00023;}.cls-5{fill:#004f9f;}</style><marker
       id="DistanceX"
       orient="auto"
       refX="0.0"
       refY="0.0"
       style="overflow:visible"><path
         d="M 3,-3 L -3,3 M 0,-5 L  0,5"
         style="stroke:#000000; stroke-width:0.5"
         id="path1-0" /></marker><pattern
       id="Hatch"
       patternUnits="userSpaceOnUse"
       width="8"
       height="8"
       x="0"
       y="0"><path
         d="M8 4 l-4,4"
         stroke="#000000"
         stroke-width="0.25"
         linecap="square"
         id="path2-9" /><path
         d="M6 2 l-4,4"
         stroke="#000000"
         stroke-width="0.25"
         linecap="square"
         id="path3-4" /><path
         d="M4 0 l-4,4"
         stroke="#000000"
         stroke-width="0.25"
         linecap="square"
         id="path4-88" /></pattern><symbol
       id="*Model_Space" /><symbol
       id="*Paper_Space" /><symbol
       id="*Paper_Space0" /></defs><g
     style="display:inline;fill:#e8eaed;stroke-width:1"
     id="g17"
     transform="matrix(0.00661458,0,0,0.00661458,1.6e-6,6.3499984)"
     inkscape:label="IfcPropertySet"><path
       id="path21"
       style="fill:#000000;fill-opacity:0.1;stroke-width:1"
       d="m 253.82807,-866.44551 c -55.9855,0 -112.2473,22.7941 -151.797,62.3438 -39.557701,39.5577 -62.343799,95.8273 -62.343799,151.797 0,55.973 22.721098,112.2626 62.343799,151.875 39.6117,39.6138 95.9394,62.2659 151.797,62.2657 55.8607,0 112.1834,-22.652 151.7969,-62.2657 15.4149,-15.4148 28.2435,-33.3473 38.2031,-52.8125 a 80.316289,80.316289 0 0 0 43.8282,13.5938 h 304.60952 a 80.316289,80.316289 0 0 0 80.31254,-80.3126 v -60 a 80.316289,80.316289 0 0 0 -80.31254,-80.3125 H 487.65627 a 80.316289,80.316289 0 0 0 -42.0313,12.7343 c -10.2008,-20.888 -23.634,-40.1923 -40,-56.5625 -39.5507,-39.5405 -95.8149,-62.3438 -151.7969,-62.3438 z m 452.26581,344.6096 c -55.97251,0 -112.24071,22.7875 -151.79691,62.3438 -14.5643,14.5642 -26.8431,31.44 -36.5626,49.6875 a 80.316289,80.316289 0 0 0 -33.125,-8.2031 h -304.6095 a 80.316289,80.316289 0 0 0 -80.312601,80.31246 v 60 a 80.316289,80.316289 0 0 0 80.312601,80.31257 h 304.6095 a 80.316289,80.316289 0 0 0 33.125,-8.125 c 9.7177,18.26145 21.9781,35.09935 36.5626,49.68752 39.6078,39.59769 95.9264,62.265677 151.79691,62.265667 55.87386,0 112.21252,-22.603117 151.87507,-62.265667 39.61345,-39.61343 62.34377,-95.90255 62.34378,-151.87509 0,-55.9695 -22.78815,-112.24376 -62.34378,-151.79686 -39.6106,-39.617 -95.9024,-62.3438 -151.87507,-62.3438 z" /><path
       style="fill:#f00023;fill-opacity:1;stroke-width:1"
       d="m 487.69006,-620.00012 v -60 h 304.62 v 60 z"
       id="path20" /><path
       style="fill:#004f9f;fill-opacity:1;stroke-width:1"
       d="m 253.85,-518.46 q -56.22,0 -95.03,-38.82 -38.82,-38.81 -38.82,-95.03 0,-56.21 38.82,-95.03 38.81,-38.81 95.03,-38.81 56.21,0 95.03,38.81 38.81,38.82 38.81,95.03 0,56.22 -38.81,95.03 -38.82,38.82 -95.03,38.82 z"
       id="path19" /><path
       style="fill:#9f358b;fill-opacity:1;stroke-width:1"
       d="m 180,-277.69 v -60 h 304.62 v 60 z"
       id="path18" /><path
       style="fill:#009eb0;fill-opacity:1;stroke-width:1"
       d="m 706.15,-173.85 q -56.21,0 -95.03,-38.81 -38.81,-38.82 -38.81,-95.03 0,-56.22 38.81,-95.03 38.82,-38.82 95.03,-38.82 56.22,0 95.03,38.82 38.82,38.81 38.82,95.03 0,56.21 -38.82,95.03 -38.81,38.81 -95.03,38.81 z"
       id="path1-7" /></g></svg>
