<?xml version="1.0" encoding="UTF-8" standalone="no"?>
<!-- Created with Inkscape (http://www.inkscape.org/) -->

<svg
   width="24"
   height="24"
   viewBox="0 0 6.3499999 6.35"
   version="1.1"
   id="svg1"
   xml:space="preserve"
   inkscape:export-filename="IfcQuantitySet.png"
   inkscape:export-xdpi="96"
   inkscape:export-ydpi="96"
   sodipodi:docname="IfcHopperIcons.svg"
   inkscape:version="1.4 (86a8ad7, 2024-10-11)"
   xmlns:inkscape="http://www.inkscape.org/namespaces/inkscape"
   xmlns:sodipodi="http://sodipodi.sourceforge.net/DTD/sodipodi-0.dtd"
   xmlns="http://www.w3.org/2000/svg"
   xmlns:svg="http://www.w3.org/2000/svg"><sodipodi:namedview
     id="namedview1"
     pagecolor="#ffffff"
     bordercolor="#000000"
     borderopacity="0.25"
     inkscape:showpageshadow="2"
     inkscape:pageopacity="0.0"
     inkscape:pagecheckerboard="0"
     inkscape:deskcolor="#d1d1d1"
     inkscape:document-units="mm"
     showgrid="true"
     inkscape:zoom="22.627418"
     inkscape:cx="1.281631"
     inkscape:cy="13.368737"
     inkscape:window-width="2560"
     inkscape:window-height="1377"
     inkscape:window-x="-8"
     inkscape:window-y="-8"
     inkscape:window-maximized="1"
     inkscape:current-layer="svg1"
     showguides="true"><inkscape:grid
       id="grid1"
       units="px"
       originx="0"
       originy="0"
       spacingx="0.26458332"
       spacingy="0.26458332"
       empcolor="#0099e5"
       empopacity="0.30196078"
       color="#0099e5"
       opacity="0.14902"
       empspacing="5"
       enabled="true"
       visible="true" /></sodipodi:namedview><defs
     id="defs1"><inkscape:path-effect
       effect="fillet_chamfer"
       id="path-effect36"
       is_visible="true"
       lpeversion="1"
       nodesatellites_param="F,0,0,1,0,25.64425,0,1 @ F,0,0,1,0,25.524718,0,1 @ F,0,0,1,0,22.845291,0,1 @ F,0,0,1,0,25.524718,0,1"
       radius="0"
       unit="px"
       method="auto"
       mode="F"
       chamfer_steps="1"
       flexible="false"
       use_knot_distance="true"
       apply_no_radius="true"
       apply_with_radius="true"
       only_selected="false"
       hide_knots="false" /><style
       id="style1">.cls-1{fill:#1c1c1b;}.cls-1,.cls-2,.cls-3,.cls-4,.cls-5{stroke-width:0px;}.cls-2{fill:#9f358b;}.cls-3{fill:#009eb0;}.cls-4{fill:#f00023;}.cls-5{fill:#004f9f;}</style><marker
       id="DistanceX"
       orient="auto"
       refX="0.0"
       refY="0.0"
       style="overflow:visible"><path
         d="M 3,-3 L -3,3 M 0,-5 L  0,5"
         style="stroke:#000000; stroke-width:0.5"
         id="path1-0" /></marker><pattern
       id="Hatch"
       patternUnits="userSpaceOnUse"
       width="8"
       height="8"
       x="0"
       y="0"><path
         d="M8 4 l-4,4"
         stroke="#000000"
         stroke-width="0.25"
         linecap="square"
         id="path2-9" /><path
         d="M6 2 l-4,4"
         stroke="#000000"
         stroke-width="0.25"
         linecap="square"
         id="path3-4" /><path
         d="M4 0 l-4,4"
         stroke="#000000"
         stroke-width="0.25"
         linecap="square"
         id="path4-88" /></pattern><symbol
       id="*Model_Space" /><symbol
       id="*Paper_Space" /><symbol
       id="*Paper_Space0" /></defs><g
     inkscape:groupmode="layer"
     id="layer1"
     inkscape:label="IfcProject"
     style="display:inline"><path
       id="path26"
       style="baseline-shift:baseline;display:inline;overflow:visible;vector-effect:none;fill:#000000;fill-opacity:0.1;enable-background:accumulate;stop-color:#000000;stop-opacity:1"
       transform="matrix(0.00661458,0,0,0.00661458,1.6e-6,6.3499984)"
       d="m 440,-920 a 80.008221,80.008221 0 0 0 -80,80 v 41.05859 c -15.94395,11.89523 -30.17223,26.08017 -41.87891,41.94922 C 293.45076,-723.55019 280,-681.38466 280,-640 c 0,31.21278 7.92569,62.63641 22.11523,90.7832 a 80.008221,80.008221 0 0 0 -9.79492,18.36719 l -107.5,295.5 a 80.008221,80.008221 0 0 0 -4.30859,36.38281 l 10,88 a 80.008221,80.008221 0 0 0 135.15234,48.425784 l 64,-62.000004 a 80.008221,80.008221 0 0 0 19.48438,-30.02343 L 480,-348.63672 l 70.85156,194.07227 a 80.008221,80.008221 0 0 0 19.48438,30.02343 l 64,62.000004 A 80.008221,80.008221 0 0 0 769.48828,-110.9668 l 10,-88 a 80.008221,80.008221 0 0 0 -4.30859,-36.38281 l -107.5,-295.5 a 80.008221,80.008221 0 0 0 -9.79492,-18.36719 C 672.07431,-577.36359 680,-608.78722 680,-640 680,-681.38466 666.54924,-723.55019 641.87891,-756.99219 630.17223,-772.86124 615.94395,-787.04618 600,-798.94141 V -840 a 80.008221,80.008221 0 0 0 -80,-80 z m 40,240 c 6.70593,0 21.79781,5.66109 28.06836,11.93164 C 514.33891,-661.79781 520,-646.70593 520,-640 c 0,6.70593 -5.66109,21.79781 -11.93164,28.06836 C 501.79781,-605.66109 486.70593,-600 480,-600 c -6.70593,0 -21.79781,-5.66109 -28.06836,-11.93164 C 445.66109,-618.20219 440,-633.29407 440,-640 c 0,-6.70593 5.66109,-21.79781 11.93164,-28.06836 C 458.20219,-674.33891 473.29407,-680 480,-680 Z" /><path
       d="m 270,-120 -10,-88 107.49994,-295.50003 c 10,9.33334 20.83334,17.16667 32.5,23.5 11.66667,6.33334 24.16667,11.16667 37.5,14.5 L 334,-182 Z m 420,0 -64,-62 -103.49998,-283.50003 c 13.33333,-3.33333 25.83333,-8.16666 37.5,-14.5 11.66667,-6.33333 22.5,-14.16666 32.5,-23.5 L 700,-208 Z M 480,-520 c -33.33333,0 -61.66667,-11.66667 -85,-35 -23.33333,-23.33333 -35,-51.66667 -35,-85 0,-26 7.5,-49.16667 22.5,-69.5 15,-20.33333 34.16667,-34.5 57.5,-42.5 v -88 h 80 v 88 c 23.33333,8 42.5,22.16667 57.5,42.5 15,20.33333 22.5,43.5 22.5,69.5 0,33.33333 -11.66667,61.66667 -35,85 -23.33333,23.33333 -51.66667,35 -85,35 z m 0,-80 c 11.33333,0 20.83333,-3.83333 28.5,-11.5 7.66667,-7.66667 11.5,-17.16667 11.5,-28.5 0,-11.33333 -3.83333,-20.83333 -11.5,-28.5 -7.66667,-7.66667 -17.16667,-11.5 -28.5,-11.5 -11.33333,0 -20.83333,3.83333 -28.5,11.5 -7.66667,7.66667 -11.5,17.16667 -11.5,28.5 0,11.33333 3.83333,20.83333 11.5,28.5 7.66667,7.66667 17.16667,11.5 28.5,11.5 z"
       id="path1-1"
       sodipodi:nodetypes="cccsccccccscccssssccccsssssssssssss"
       style="display:inline;fill:#000000;fill-opacity:1"
       transform="matrix(0.00661458,0,0,0.00661458,1.6e-6,6.3499984)" /></g></svg>
