<?xml version="1.0" encoding="UTF-8" standalone="no"?>
<!-- Created with Inkscape (http://www.inkscape.org/) -->

<svg
   width="24"
   height="24"
   viewBox="0 0 6.3499999 6.35"
   version="1.1"
   id="svg1"
   xml:space="preserve"
   inkscape:export-filename="IfcQuantitySet.png"
   inkscape:export-xdpi="96"
   inkscape:export-ydpi="96"
   sodipodi:docname="IfcQto.svg"
   inkscape:version="1.4 (86a8ad7, 2024-10-11)"
   xmlns:inkscape="http://www.inkscape.org/namespaces/inkscape"
   xmlns:sodipodi="http://sodipodi.sourceforge.net/DTD/sodipodi-0.dtd"
   xmlns="http://www.w3.org/2000/svg"
   xmlns:svg="http://www.w3.org/2000/svg"><sodipodi:namedview
     id="namedview1"
     pagecolor="#ffffff"
     bordercolor="#000000"
     borderopacity="0.25"
     inkscape:showpageshadow="2"
     inkscape:pageopacity="0.0"
     inkscape:pagecheckerboard="0"
     inkscape:deskcolor="#d1d1d1"
     inkscape:document-units="mm"
     showgrid="true"
     inkscape:zoom="22.627418"
     inkscape:cx="1.281631"
     inkscape:cy="13.368737"
     inkscape:window-width="2560"
     inkscape:window-height="1377"
     inkscape:window-x="-8"
     inkscape:window-y="-8"
     inkscape:window-maximized="1"
     inkscape:current-layer="svg1"
     showguides="true"><inkscape:grid
       id="grid1"
       units="px"
       originx="0"
       originy="0"
       spacingx="0.26458332"
       spacingy="0.26458332"
       empcolor="#0099e5"
       empopacity="0.30196078"
       color="#0099e5"
       opacity="0.14902"
       empspacing="5"
       enabled="true"
       visible="true" /></sodipodi:namedview><defs
     id="defs1"><inkscape:path-effect
       effect="fillet_chamfer"
       id="path-effect36"
       is_visible="true"
       lpeversion="1"
       nodesatellites_param="F,0,0,1,0,25.64425,0,1 @ F,0,0,1,0,25.524718,0,1 @ F,0,0,1,0,22.845291,0,1 @ F,0,0,1,0,25.524718,0,1"
       radius="0"
       unit="px"
       method="auto"
       mode="F"
       chamfer_steps="1"
       flexible="false"
       use_knot_distance="true"
       apply_no_radius="true"
       apply_with_radius="true"
       only_selected="false"
       hide_knots="false" /><style
       id="style1">.cls-1{fill:#1c1c1b;}.cls-1,.cls-2,.cls-3,.cls-4,.cls-5{stroke-width:0px;}.cls-2{fill:#9f358b;}.cls-3{fill:#009eb0;}.cls-4{fill:#f00023;}.cls-5{fill:#004f9f;}</style><marker
       id="DistanceX"
       orient="auto"
       refX="0.0"
       refY="0.0"
       style="overflow:visible"><path
         d="M 3,-3 L -3,3 M 0,-5 L  0,5"
         style="stroke:#000000; stroke-width:0.5"
         id="path1-0" /></marker><pattern
       id="Hatch"
       patternUnits="userSpaceOnUse"
       width="8"
       height="8"
       x="0"
       y="0"><path
         d="M8 4 l-4,4"
         stroke="#000000"
         stroke-width="0.25"
         linecap="square"
         id="path2-9" /><path
         d="M6 2 l-4,4"
         stroke="#000000"
         stroke-width="0.25"
         linecap="square"
         id="path3-4" /><path
         d="M4 0 l-4,4"
         stroke="#000000"
         stroke-width="0.25"
         linecap="square"
         id="path4-88" /></pattern><symbol
       id="*Model_Space" /><symbol
       id="*Paper_Space" /><symbol
       id="*Paper_Space0" /></defs><g
     inkscape:groupmode="layer"
     id="layer9"
     inkscape:label="IfcQuantitySet"><path
       id="path22"
       d="m 480,-968.88867 c -43.09403,0 -87.20523,14.04239 -122.21289,39.45117 -15.62618,11.34158 -29.71032,25.14445 -41.80859,40.54883 H 120 A 88.897858,88.897858 0 0 0 31.111328,-800 v 80 a 88.897858,88.897858 0 0 0 40.490234,73.94336 L -1.7011719,-475.01562 A 88.897858,88.897858 0 0 0 -8.8886719,-440 c 0,57.62965 28.9452279,115.70134 72.1757809,152.60547 0.245127,0.20925 0.503968,0.40124 0.75,0.60937 A 88.897858,88.897858 0 0 0 -8.8886719,-200 v 80 A 88.897858,88.897858 0 0 0 80,-31.111328 H 880 A 88.897858,88.897858 0 0 0 968.88867,-120 v -80 a 88.897858,88.897858 0 0 0 -72.92578,-86.78516 c 0.24603,-0.20813 0.50487,-0.40012 0.75,-0.60937 43.23055,-36.90413 72.17578,-94.97581 72.17578,-152.60547 a 88.897858,88.897858 0 0 0 -7.1875,-35.01562 L 888.39844,-646.05664 A 88.897858,88.897858 0 0 0 928.88867,-720 v -80 A 88.897858,88.897858 0 0 0 840,-888.88867 H 644.02148 C 631.92321,-904.29305 617.83907,-918.09592 602.21289,-929.4375 567.20523,-954.84628 523.09403,-968.88867 480,-968.88867 Z m 0,160 c 8.71025,0 26.53442,6.71606 34.35352,14.53515 7.81909,7.8191 14.53515,25.64327 14.53515,34.35352 0,8.71025 -6.71606,26.53442 -14.53515,34.35352 -7.8191,7.81909 -25.64327,14.53515 -34.35352,14.53515 -8.71025,0 -26.53442,-6.71606 -34.35352,-14.53515 -7.81909,-7.8191 -14.53515,-25.64327 -14.53515,-34.35352 0,-8.71025 6.71606,-26.53442 14.53515,-34.35352 7.8191,-7.81909 25.64327,-14.53515 34.35352,-14.53515 z"
       style="fill:#000000;fill-opacity:0.1;stroke-width:1.11111"
       transform="matrix(0.00595312,0,0,0.00595312,0.31750241,6.1515601)" /><path
       d="m 80,-120 v -80 h 360 v -447 q -26,-9 -45,-28 -19,-19 -28,-45 H 240 l 120,280 q 0,50 -41,85 -41,35 -99,35 -58,0 -99,-35 -41,-35 -41,-85 l 120,-280 h -80 v -80 h 247 q 12,-35 43,-57.5 31,-22.5 70,-22.5 39,0 70,22.5 31,22.5 43,57.5 h 247 v 80 h -80 l 120,280 q 0,50 -41,85 -41,35 -99,35 -58,0 -99,-35 -41,-35 -41,-85 L 720,-720 H 593 q -9,26 -28,45 -19,19 -45,28 v 447 h 360 v 80 z m 585,-320 h 150 l -75,-174 z m -520,0 h 150 l -75,-174 z m 335,-280 q 17,0 28.5,-11.5 Q 520,-743 520,-760 520,-777 508.5,-788.5 497,-800 480,-800 q -17,0 -28.5,11.5 -11.5,11.5 -11.5,28.5 0,17 11.5,28.5 11.5,11.5 28.5,11.5 z"
       id="path1-8"
       style="fill:#000000;stroke-width:1.11111;fill-opacity:1"
       transform="matrix(0.00595312,0,0,0.00595312,0.31750241,6.1515601)" /></g></svg>
