<?xml version="1.0" encoding="UTF-8" standalone="no"?>
<!-- Created with Inkscape (http://www.inkscape.org/) -->

<svg
   width="24"
   height="24"
   viewBox="0 0 6.3499999 6.35"
   version="1.1"
   id="svg1"
   xml:space="preserve"
   inkscape:export-filename="IfcQuantitySet.png"
   inkscape:export-xdpi="96"
   inkscape:export-ydpi="96"
   sodipodi:docname="IfcRoad.svg"
   inkscape:version="1.4 (86a8ad7, 2024-10-11)"
   xmlns:inkscape="http://www.inkscape.org/namespaces/inkscape"
   xmlns:sodipodi="http://sodipodi.sourceforge.net/DTD/sodipodi-0.dtd"
   xmlns="http://www.w3.org/2000/svg"
   xmlns:svg="http://www.w3.org/2000/svg"><sodipodi:namedview
     id="namedview1"
     pagecolor="#ffffff"
     bordercolor="#000000"
     borderopacity="0.25"
     inkscape:showpageshadow="2"
     inkscape:pageopacity="0.0"
     inkscape:pagecheckerboard="0"
     inkscape:deskcolor="#d1d1d1"
     inkscape:document-units="mm"
     showgrid="true"
     inkscape:zoom="22.627418"
     inkscape:cx="1.281631"
     inkscape:cy="13.368737"
     inkscape:window-width="2560"
     inkscape:window-height="1377"
     inkscape:window-x="-8"
     inkscape:window-y="-8"
     inkscape:window-maximized="1"
     inkscape:current-layer="svg1"
     showguides="true"><inkscape:grid
       id="grid1"
       units="px"
       originx="0"
       originy="0"
       spacingx="0.26458332"
       spacingy="0.26458332"
       empcolor="#0099e5"
       empopacity="0.30196078"
       color="#0099e5"
       opacity="0.14902"
       empspacing="5"
       enabled="true"
       visible="true" /></sodipodi:namedview><defs
     id="defs1"><inkscape:path-effect
       effect="fillet_chamfer"
       id="path-effect36"
       is_visible="true"
       lpeversion="1"
       nodesatellites_param="F,0,0,1,0,25.64425,0,1 @ F,0,0,1,0,25.524718,0,1 @ F,0,0,1,0,22.845291,0,1 @ F,0,0,1,0,25.524718,0,1"
       radius="0"
       unit="px"
       method="auto"
       mode="F"
       chamfer_steps="1"
       flexible="false"
       use_knot_distance="true"
       apply_no_radius="true"
       apply_with_radius="true"
       only_selected="false"
       hide_knots="false" /><style
       id="style1">.cls-1{fill:#1c1c1b;}.cls-1,.cls-2,.cls-3,.cls-4,.cls-5{stroke-width:0px;}.cls-2{fill:#9f358b;}.cls-3{fill:#009eb0;}.cls-4{fill:#f00023;}.cls-5{fill:#004f9f;}</style><marker
       id="DistanceX"
       orient="auto"
       refX="0.0"
       refY="0.0"
       style="overflow:visible"><path
         d="M 3,-3 L -3,3 M 0,-5 L  0,5"
         style="stroke:#000000; stroke-width:0.5"
         id="path1-0" /></marker><pattern
       id="Hatch"
       patternUnits="userSpaceOnUse"
       width="8"
       height="8"
       x="0"
       y="0"><path
         d="M8 4 l-4,4"
         stroke="#000000"
         stroke-width="0.25"
         linecap="square"
         id="path2-9" /><path
         d="M6 2 l-4,4"
         stroke="#000000"
         stroke-width="0.25"
         linecap="square"
         id="path3-4" /><path
         d="M4 0 l-4,4"
         stroke="#000000"
         stroke-width="0.25"
         linecap="square"
         id="path4-88" /></pattern><symbol
       id="*Model_Space" /><symbol
       id="*Paper_Space" /><symbol
       id="*Paper_Space0" /></defs><g
     inkscape:groupmode="layer"
     id="layer7"
     inkscape:label="IfcRoad"
     style="display:inline"><path
       id="path1-3"
       style="display:inline;fill:#000000;fill-opacity:0.1;stroke-width:0.00661458"
       d="M 0.79296875,0.26367188 A 0.52843824,0.52843824 0 0 0 0.26367188,0.79296875 V 5.5566406 A 0.52843824,0.52843824 0 0 0 0.79296875,6.0859375 H 1.2695312 A 0.52843824,0.52843824 0 0 0 1.7988281,5.5566406 V 0.79296875 A 0.52843824,0.52843824 0 0 0 1.2695312,0.26367188 Z m 2.14453125,0 A 0.52843824,0.52843824 0 0 0 2.4082031,0.79296875 V 1.9179687 A 0.52843824,0.52843824 0 0 0 2.7558594,2.265625 0.52843824,0.52843824 0 0 0 2.4082031,2.6132813 V 3.7363281 A 0.52843824,0.52843824 0 0 0 2.7578125,4.0859375 0.52843824,0.52843824 0 0 0 2.4082031,4.4335937 V 5.5566406 A 0.52843824,0.52843824 0 0 0 2.9375,6.0859375 H 3.4140625 A 0.52843824,0.52843824 0 0 0 3.9433594,5.5566406 V 4.4335937 A 0.52843824,0.52843824 0 0 0 3.59375,4.0859375 0.52843824,0.52843824 0 0 0 3.9433594,3.7363281 V 2.6132813 A 0.52843824,0.52843824 0 0 0 3.5957031,2.265625 0.52843824,0.52843824 0 0 0 3.9433594,1.9179687 V 0.79296875 A 0.52843824,0.52843824 0 0 0 3.4140625,0.26367188 Z m 2.1425781,0 A 0.52843824,0.52843824 0 0 0 4.5507812,0.79296875 V 5.5566406 A 0.52843824,0.52843824 0 0 0 5.0800781,6.0859375 H 5.5566406 A 0.52843824,0.52843824 0 0 0 6.0859375,5.5566406 V 0.79296875 A 0.52843824,0.52843824 0 0 0 5.5566406,0.26367188 Z" /><path
       d="M 0.79375,5.55625 V 0.79375 H 1.27 v 4.7625 z m 2.143125,0 V 4.4327762 h 0.47625 V 5.55625 Z m 2.143125,0 v -4.7625 h 0.47625 v 4.7625 z M 2.936875,3.7367368 V 2.6132631 h 0.47625 v 1.1234737 z m 0,-1.819513 V 0.79375 h 0.47625 v 1.1234738 z"
       id="path40"
       style="display:inline;fill:#000000;fill-opacity:1;stroke-width:0.00661458" /></g></svg>
