<?xml version="1.0" encoding="UTF-8" standalone="no"?>
<!-- Created with Inkscape (http://www.inkscape.org/) -->

<svg
   width="24"
   height="24"
   viewBox="0 0 6.3499999 6.35"
   version="1.1"
   id="svg1"
   xml:space="preserve"
   inkscape:export-filename="IfcQuantitySet.png"
   inkscape:export-xdpi="96"
   inkscape:export-ydpi="96"
   sodipodi:docname="IfcHopperSite.svg"
   inkscape:version="1.4 (86a8ad7, 2024-10-11)"
   xmlns:inkscape="http://www.inkscape.org/namespaces/inkscape"
   xmlns:sodipodi="http://sodipodi.sourceforge.net/DTD/sodipodi-0.dtd"
   xmlns="http://www.w3.org/2000/svg"
   xmlns:svg="http://www.w3.org/2000/svg"><sodipodi:namedview
     id="namedview1"
     pagecolor="#ffffff"
     bordercolor="#000000"
     borderopacity="0.25"
     inkscape:showpageshadow="2"
     inkscape:pageopacity="0.0"
     inkscape:pagecheckerboard="0"
     inkscape:deskcolor="#d1d1d1"
     inkscape:document-units="mm"
     showgrid="true"
     inkscape:zoom="22.627418"
     inkscape:cx="1.281631"
     inkscape:cy="13.368737"
     inkscape:window-width="2560"
     inkscape:window-height="1377"
     inkscape:window-x="-8"
     inkscape:window-y="-8"
     inkscape:window-maximized="1"
     inkscape:current-layer="svg1"
     showguides="true"><inkscape:grid
       id="grid1"
       units="px"
       originx="0"
       originy="0"
       spacingx="0.26458332"
       spacingy="0.26458332"
       empcolor="#0099e5"
       empopacity="0.30196078"
       color="#0099e5"
       opacity="0.14902"
       empspacing="5"
       enabled="true"
       visible="true" /></sodipodi:namedview><defs
     id="defs1"><inkscape:path-effect
       effect="fillet_chamfer"
       id="path-effect36"
       is_visible="true"
       lpeversion="1"
       nodesatellites_param="F,0,0,1,0,25.64425,0,1 @ F,0,0,1,0,25.524718,0,1 @ F,0,0,1,0,22.845291,0,1 @ F,0,0,1,0,25.524718,0,1"
       radius="0"
       unit="px"
       method="auto"
       mode="F"
       chamfer_steps="1"
       flexible="false"
       use_knot_distance="true"
       apply_no_radius="true"
       apply_with_radius="true"
       only_selected="false"
       hide_knots="false" /><style
       id="style1">.cls-1{fill:#1c1c1b;}.cls-1,.cls-2,.cls-3,.cls-4,.cls-5{stroke-width:0px;}.cls-2{fill:#9f358b;}.cls-3{fill:#009eb0;}.cls-4{fill:#f00023;}.cls-5{fill:#004f9f;}</style><marker
       id="DistanceX"
       orient="auto"
       refX="0.0"
       refY="0.0"
       style="overflow:visible"><path
         d="M 3,-3 L -3,3 M 0,-5 L  0,5"
         style="stroke:#000000; stroke-width:0.5"
         id="path1-0" /></marker><pattern
       id="Hatch"
       patternUnits="userSpaceOnUse"
       width="8"
       height="8"
       x="0"
       y="0"><path
         d="M8 4 l-4,4"
         stroke="#000000"
         stroke-width="0.25"
         linecap="square"
         id="path2-9" /><path
         d="M6 2 l-4,4"
         stroke="#000000"
         stroke-width="0.25"
         linecap="square"
         id="path3-4" /><path
         d="M4 0 l-4,4"
         stroke="#000000"
         stroke-width="0.25"
         linecap="square"
         id="path4-88" /></pattern><symbol
       id="*Model_Space" /><symbol
       id="*Paper_Space" /><symbol
       id="*Paper_Space0" /></defs><g
     inkscape:groupmode="layer"
     id="layer2"
     inkscape:label="IfcSite"
     style="display:inline"><path
       id="path12"
       style="display:inline;fill-opacity:0.1;stroke-width:0.00661457"
       d="m 3.175,0.26484373 c -0.3963566,0 -0.7803474,0.0766919 -1.1367187,0.23046875 C 1.6921544,0.64466839 1.379247,0.85161206 1.1164062,1.1144531 0.85356515,1.377294 0.64512035,1.6911074 0.49531255,2.0382813 0.34153645,2.3946519 0.26484385,2.778643 0.26484375,3.175 c 0,0.3963567 0.076349,0.781506 0.2304688,1.1386719 0.1501507,0.3479684 0.3593902,0.6601714 0.62109365,0.921875 C 1.3792469,5.4983877 1.6921544,5.7053315 2.0382813,5.8546875 2.3946519,6.0084636 2.778643,6.0851563 3.175,6.0851563 c 0.3963569,0 0.7815061,-0.076349 1.1386719,-0.2304688 C 4.6597986,5.7053315 4.9727061,5.4983876 5.2355469,5.2355469 5.4983875,4.9727061 5.7053315,4.6597986 5.8546875,4.3136719 6.0088066,3.9565065 6.0851562,3.5713571 6.0851562,3.175 6.0851562,2.7786432 6.0084642,2.3946523 5.8546875,2.0382813 5.7056744,1.6929491 5.499525,1.3784311 5.2355469,1.1144531 4.9727061,0.85161246 4.6597987,0.64466843 4.3136719,0.49531248 3.9565063,0.34119324 3.5713569,0.26484373 3.175,0.26484373 Z" /><path
       id="path13"
       style="display:inline;fill:#ffffff;fill-opacity:1;stroke-width:0.00661456"
       d="m 3.1749999,1.5874999 c -0.2162138,0 -0.4256821,0.041836 -0.6200839,0.1257215 C 2.3661026,1.7946956 2.1954106,1.9075841 2.0520301,2.0509647 1.9086494,2.1943453 1.794942,2.3655316 1.7132214,2.5549161 1.629336,2.7493175 1.5874999,2.9587859 1.5874999,3.175 c 0,0.216214 0.041649,0.4263142 0.1257215,0.6211494 0.081908,0.1898179 0.1960485,0.3601257 0.3388087,0.5028859 0.1433804,0.1433806 0.3140725,0.2562691 0.5028859,0.3377433 0.1944014,0.083885 0.4038698,0.1257215 0.6200839,0.1257215 0.2162141,0 0.4263143,-0.041649 0.6211494,-0.1257215 C 3.9849626,4.5553044 4.1556547,4.4424158 4.2990352,4.2990353 4.4424157,4.1556548 4.5553043,3.9849627 4.6367785,3.7961494 4.720851,3.6013145 4.7625,3.3912142 4.7625,3.175 4.7625,2.9587861 4.7206642,2.7493177 4.6367785,2.5549161 4.5554914,2.3665363 4.4430362,2.1949656 4.2990352,2.0509647 4.1556547,1.9075843 3.9849626,1.7946956 3.7961493,1.7132214 3.6013143,1.6291489 3.391214,1.5874999 3.1749999,1.5874999 Z" /><path
       d="m 319,-280 161,-73 161,73 15,-15 -176,-425 -176,425 z M 480,-80 Q 397,-80 324,-111.5 251,-143 197,-197 143,-251 111.5,-324 80,-397 80,-480 q 0,-83 31.5,-156 31.5,-73 85.5,-127 54,-54 127,-85.5 73,-31.5 156,-31.5 83,0 156,31.5 73,31.5 127,85.5 54,54 85.5,127 31.5,73 31.5,156 0,83 -31.5,156 -31.5,73 -85.5,127 -54,54 -127,85.5 Q 563,-80 480,-80 Z"
       id="path1-88"
       style="display:inline;fill:#000000;fill-opacity:1;stroke-width:1.11111"
       transform="matrix(0.00595312,0,0,0.00595312,0.31750241,6.0324976)" /></g></svg>
