<?xml version="1.0" encoding="UTF-8" standalone="no"?>
<!-- Created with Inkscape (http://www.inkscape.org/) -->

<svg
   width="24"
   height="24"
   viewBox="0 0 6.3499999 6.35"
   version="1.1"
   id="svg1"
   xml:space="preserve"
   inkscape:export-filename="IfcQuantitySet.png"
   inkscape:export-xdpi="96"
   inkscape:export-ydpi="96"
   sodipodi:docname="IfcStyle.svg"
   inkscape:version="1.4 (86a8ad7, 2024-10-11)"
   xmlns:inkscape="http://www.inkscape.org/namespaces/inkscape"
   xmlns:sodipodi="http://sodipodi.sourceforge.net/DTD/sodipodi-0.dtd"
   xmlns="http://www.w3.org/2000/svg"
   xmlns:svg="http://www.w3.org/2000/svg"><sodipodi:namedview
     id="namedview1"
     pagecolor="#ffffff"
     bordercolor="#000000"
     borderopacity="0.25"
     inkscape:showpageshadow="2"
     inkscape:pageopacity="0.0"
     inkscape:pagecheckerboard="0"
     inkscape:deskcolor="#d1d1d1"
     inkscape:document-units="mm"
     showgrid="true"
     inkscape:zoom="22.627418"
     inkscape:cx="8.8388344"
     inkscape:cy="13.147766"
     inkscape:window-width="1920"
     inkscape:window-height="1137"
     inkscape:window-x="2552"
     inkscape:window-y="108"
     inkscape:window-maximized="1"
     inkscape:current-layer="layer7"
     showguides="true"><inkscape:grid
       id="grid1"
       units="px"
       originx="0"
       originy="0"
       spacingx="0.26458332"
       spacingy="0.26458332"
       empcolor="#0099e5"
       empopacity="0.30196078"
       color="#0099e5"
       opacity="0.14902"
       empspacing="5"
       enabled="true"
       visible="true" /></sodipodi:namedview><defs
     id="defs1"><inkscape:path-effect
       effect="fillet_chamfer"
       id="path-effect36"
       is_visible="true"
       lpeversion="1"
       nodesatellites_param="F,0,0,1,0,25.64425,0,1 @ F,0,0,1,0,25.524718,0,1 @ F,0,0,1,0,22.845291,0,1 @ F,0,0,1,0,25.524718,0,1"
       radius="0"
       unit="px"
       method="auto"
       mode="F"
       chamfer_steps="1"
       flexible="false"
       use_knot_distance="true"
       apply_no_radius="true"
       apply_with_radius="true"
       only_selected="false"
       hide_knots="false" /><style
       id="style1">.cls-1{fill:#1c1c1b;}.cls-1,.cls-2,.cls-3,.cls-4,.cls-5{stroke-width:0px;}.cls-2{fill:#9f358b;}.cls-3{fill:#009eb0;}.cls-4{fill:#f00023;}.cls-5{fill:#004f9f;}</style><marker
       id="DistanceX"
       orient="auto"
       refX="0.0"
       refY="0.0"
       style="overflow:visible"><path
         d="M 3,-3 L -3,3 M 0,-5 L  0,5"
         style="stroke:#000000; stroke-width:0.5"
         id="path1-0" /></marker><pattern
       id="Hatch"
       patternUnits="userSpaceOnUse"
       width="8"
       height="8"
       x="0"
       y="0"><path
         d="M8 4 l-4,4"
         stroke="#000000"
         stroke-width="0.25"
         linecap="square"
         id="path2-9" /><path
         d="M6 2 l-4,4"
         stroke="#000000"
         stroke-width="0.25"
         linecap="square"
         id="path3-4" /><path
         d="M4 0 l-4,4"
         stroke="#000000"
         stroke-width="0.25"
         linecap="square"
         id="path4-88" /></pattern><symbol
       id="*Model_Space" /><symbol
       id="*Paper_Space" /><symbol
       id="*Paper_Space0" /></defs><g
     inkscape:groupmode="layer"
     id="layer7"
     inkscape:label="IfcRoad"
     style="display:inline"><path
       id="path7"
       style="display:inline;fill:#000000;fill-opacity:0.1;stroke-width:0.00661458"
       d="M 2.217694,0.27082946 C 2.1076761,0.28788096 2.005854,0.33924416 1.9267557,0.41759053 L 1.6456359,0.69664326 c -0.2083872,0.2067085 -0.2083872,0.54363334 0,0.75034184 L 1.7489888,1.5482709 1.1789977,2.122396 C 1.0120292,2.289365 0.90924685,2.5475951 0.90924685,2.7766197 c 0,0.2290239 0.0995839,0.4861235 0.26975085,0.6562907 L 1.9779154,4.231828 H 1.1903665 C 0.89794915,4.2314251 0.66079705,4.4685773 0.66119995,4.7609947 V 5.556295 c -4.029e-4,0.2924174 0.2367492,0.5295695 0.52916655,0.5291666 H 2.182554 3.1747415 4.166929 5.1591165 C 5.4517357,6.086151 5.6892037,5.8489147 5.6888,5.556295 V 4.7609947 C 5.651469,4.5388307 5.4773987,4.3647604 5.2552347,4.3274294 5.3811389,4.1660871 5.4893289,3.9708522 5.4893289,3.7688072 5.4893289,3.5920383 5.4355659,3.4350857 5.366339,3.302169 5.313199,3.2001386 5.2538443,3.1054028 5.1906392,3.0169151 c -0.00254,-0.0033 -0.00513,-0.00658 -0.00775,-0.00982 C 5.1559482,2.9711791 5.1234452,2.9260491 5.0852192,2.8763552 5.0426925,2.8210707 4.9983694,2.7683617 4.9524108,2.7182253 4.849148,2.6074391 4.7033148,2.5462833 4.5519185,2.5502769 4.5089053,2.3966405 4.485334,2.2315114 4.3762186,2.122396 L 2.6729634,0.41965758 C 2.5536936,0.30017162 2.3845115,0.24486579 2.217694,0.27082946 Z"
       sodipodi:nodetypes="ccccccssccccccccccccssccsccccc" /><path
       d="M 2.0191015,1.0715625 2.301875,0.79375 4.0034765,2.4953515 c 0.076068,0.076068 0.1141016,0.1703256 0.1141016,0.2827735 0,0.1124479 -0.038034,0.2067058 -0.1141016,0.2827735 L 3.0608984,4.0034766 c -0.076068,0.076068 -0.1703255,0.1141015 -0.2827734,0.1141015 -0.1124479,0 -0.2067058,-0.038034 -0.2827735,-0.1141015 L 1.5527734,3.0608985 C 1.4767057,2.9848308 1.4386719,2.8905729 1.4386719,2.778125 c 0,-0.1124479 0.038034,-0.2067058 0.1141015,-0.2827735 L 2.4953515,1.5478125 Z M 2.778125,1.8305859 1.8305859,2.778125 h 1.8950782 z m 1.7859375,2.3366016 c -0.1091407,0 -0.2025717,-0.038861 -0.280293,-0.116582 -0.077721,-0.077721 -0.116582,-0.1711524 -0.116582,-0.280293 0,-0.069453 0.020671,-0.1438672 0.062012,-0.2232422 0.041341,-0.079375 0.086817,-0.1537891 0.1364258,-0.2232422 0.029765,-0.039687 0.061185,-0.081028 0.094258,-0.1240234 0.033073,-0.042995 0.0678,-0.084336 0.1041798,-0.1240234 0.03638,0.039687 0.071106,0.081028 0.1041796,0.1240234 0.033073,0.042995 0.064492,0.084337 0.094258,0.1240234 0.049609,0.069453 0.095085,0.1438672 0.1364257,0.2232422 0.041341,0.079375 0.062012,0.1537891 0.062012,0.2232422 0,0.1091406 -0.038861,0.2025716 -0.1165821,0.280293 -0.077721,0.077721 -0.1711519,0.116582 -0.2802925,0.116582 z"
       id="path1"
       style="fill:#000000;fill-opacity:1;stroke-width:0.00661458"
       sodipodi:nodetypes="ccsssssssscccccccsssscscscsssss" /><path
       d="M 1.190625,5.55625 V 4.7625 h 0.9921875 v 0.79375 z"
       id="path2"
       style="fill:#9f358b;stroke-width:0.00661458;fill-opacity:1"
       sodipodi:nodetypes="ccccc" /><path
       d="M 2.1828125,5.55625 V 4.7625 H 3.175 v 0.79375 z"
       id="path2-4"
       style="display:inline;fill:#004f9f;stroke-width:0.00661458;fill-opacity:1"
       sodipodi:nodetypes="ccccc" /><path
       d="M 3.175,5.55625 V 4.7625 h 0.9921875 v 0.79375 z"
       id="path2-7"
       style="display:inline;fill:#f00023;stroke-width:0.00661458;fill-opacity:1"
       sodipodi:nodetypes="ccccc" /><path
       d="M 4.1671875,5.55625 V 4.7625 H 5.159375 v 0.79375 z"
       id="path2-2"
       style="display:inline;fill:#009eb0;stroke-width:0.00661458;fill-opacity:1"
       sodipodi:nodetypes="ccccc" /><path
       style="fill:#ffffff;fill-opacity:1;stroke-width:0.264583;stroke-linecap:round;stroke-linejoin:round;paint-order:markers stroke fill"
       d="m 1.8305859,2.778125 c 0,0 0.9475391,-0.9475391 0.9475391,-0.9475391 L 3.725664,2.778125 Z"
       id="path8" /></g></svg>
