<?xml version="1.0" encoding="UTF-8" standalone="no"?>
<!-- Created with Inkscape (http://www.inkscape.org/) -->

<svg
   width="24"
   height="24"
   viewBox="0 0 6.3499999 6.35"
   version="1.1"
   id="svg1"
   xml:space="preserve"
   inkscape:export-filename="IfcQuantitySet.png"
   inkscape:export-xdpi="96"
   inkscape:export-ydpi="96"
   sodipodi:docname="IfcTunnel.svg"
   inkscape:version="1.4 (86a8ad7, 2024-10-11)"
   xmlns:inkscape="http://www.inkscape.org/namespaces/inkscape"
   xmlns:sodipodi="http://sodipodi.sourceforge.net/DTD/sodipodi-0.dtd"
   xmlns="http://www.w3.org/2000/svg"
   xmlns:svg="http://www.w3.org/2000/svg"><sodipodi:namedview
     id="namedview1"
     pagecolor="#ffffff"
     bordercolor="#000000"
     borderopacity="0.25"
     inkscape:showpageshadow="2"
     inkscape:pageopacity="0.0"
     inkscape:pagecheckerboard="0"
     inkscape:deskcolor="#d1d1d1"
     inkscape:document-units="mm"
     showgrid="true"
     inkscape:zoom="22.627418"
     inkscape:cx="1.281631"
     inkscape:cy="13.368737"
     inkscape:window-width="2560"
     inkscape:window-height="1377"
     inkscape:window-x="-8"
     inkscape:window-y="-8"
     inkscape:window-maximized="1"
     inkscape:current-layer="svg1"
     showguides="true"><inkscape:grid
       id="grid1"
       units="px"
       originx="0"
       originy="0"
       spacingx="0.26458332"
       spacingy="0.26458332"
       empcolor="#0099e5"
       empopacity="0.30196078"
       color="#0099e5"
       opacity="0.14902"
       empspacing="5"
       enabled="true"
       visible="true" /></sodipodi:namedview><defs
     id="defs1"><inkscape:path-effect
       effect="fillet_chamfer"
       id="path-effect36"
       is_visible="true"
       lpeversion="1"
       nodesatellites_param="F,0,0,1,0,25.64425,0,1 @ F,0,0,1,0,25.524718,0,1 @ F,0,0,1,0,22.845291,0,1 @ F,0,0,1,0,25.524718,0,1"
       radius="0"
       unit="px"
       method="auto"
       mode="F"
       chamfer_steps="1"
       flexible="false"
       use_knot_distance="true"
       apply_no_radius="true"
       apply_with_radius="true"
       only_selected="false"
       hide_knots="false" /><style
       id="style1">.cls-1{fill:#1c1c1b;}.cls-1,.cls-2,.cls-3,.cls-4,.cls-5{stroke-width:0px;}.cls-2{fill:#9f358b;}.cls-3{fill:#009eb0;}.cls-4{fill:#f00023;}.cls-5{fill:#004f9f;}</style><marker
       id="DistanceX"
       orient="auto"
       refX="0.0"
       refY="0.0"
       style="overflow:visible"><path
         d="M 3,-3 L -3,3 M 0,-5 L  0,5"
         style="stroke:#000000; stroke-width:0.5"
         id="path1-0" /></marker><pattern
       id="Hatch"
       patternUnits="userSpaceOnUse"
       width="8"
       height="8"
       x="0"
       y="0"><path
         d="M8 4 l-4,4"
         stroke="#000000"
         stroke-width="0.25"
         linecap="square"
         id="path2-9" /><path
         d="M6 2 l-4,4"
         stroke="#000000"
         stroke-width="0.25"
         linecap="square"
         id="path3-4" /><path
         d="M4 0 l-4,4"
         stroke="#000000"
         stroke-width="0.25"
         linecap="square"
         id="path4-88" /></pattern><symbol
       id="*Model_Space" /><symbol
       id="*Paper_Space" /><symbol
       id="*Paper_Space0" /></defs><g
     id="g5"
     transform="matrix(0.00566679,0,0,0.00560957,0.92613361,-1.2295988)"
     style="display:inline;stroke-width:46.9277"
     inkscape:label="IfcTunnel"><path
       id="path9"
       style="baseline-shift:baseline;display:inline;overflow:visible;vector-effect:none;fill:#000000;fill-opacity:0.0951557;enable-background:accumulate;stop-color:#000000;stop-opacity:1"
       d="m 390.07194,334.04665 c -135.4552,1.76349 -265.2423,57.0081 -360.550804,154.24804 -100.4786,102.51483 -153.404896,242.44325 -146.244196,385.65821 l -0.5781,178.8066 a 94.067435,94.067435 0 0 0 94.056596,94.3614 H 7.5777362 l -7.34179998,-3.6504 c 249.77290378,123.8853 543.32481378,123.8853 793.09768378,0 l -7.3418,3.6504 h 31.01562 a 94.067435,94.067435 0 0 0 94.0586,-94.0586 V 848.22047 a 94.067435,94.067435 0 0 0 0,-0.002 94.067435,94.067435 0 0 0 0,-0.002 94.067435,94.067435 0 0 0 0,-0.002 94.067435,94.067435 0 0 0 0,-0.002 94.067435,94.067435 0 0 0 0,-0.002 C 911.05114,715.39664 859.60418,587.65587 767.56994,491.90187 675.53651,396.14873 549.93588,339.6851 417.22814,334.40969 v 0 c -9.0687,-0.36064 -18.1229,-0.48084 -27.1523,-0.36328 z" /><path
       id="path17"
       style="fill:#ffffff;fill-opacity:1;stroke:none;stroke-width:46.9277"
       d="m 396.83965,481.66405 c 127.59488,0.0213 246.35498,65.16035 314.95051,172.74802 68.59554,107.58767 77.53898,242.74339 23.71792,358.43153 -214.45023,101.1492 -462.88665,101.1492 -677.336875,0 C 4.3501365,897.15546 13.29358,761.99973 81.889125,654.41206 150.48467,546.82439 269.24476,481.68537 396.83965,481.66405 Z"
       sodipodi:nodetypes="csccsc"
       transform="translate(1.6543757e-6)" /><path
       id="path6-4"
       style="fill:#000000;fill-opacity:1;stroke:none;stroke-width:46.9277"
       d="M 413.54424,428.38085 A 420.20504,420.20504 0 0 0 -22.609837,873.37333 l -0.579351,179.67467 h 52.913977 l 12.359469,6.1453 a 798.38958,798.38958 0 0 0 709.510772,0 l 12.35947,-6.1453 h 53.1071 V 848.20716 A 420.20504,420.20504 0 0 0 413.54424,428.38085 Z m -16.70459,83.69213 a 336.16404,336.16404 0 0 1 304.73815,477.9621 714.34857,714.34857 0 0 1 -609.476315,0 336.16404,336.16404 0 0 1 304.738165,-477.9621 z" /></g></svg>
